<?xml version="1.0" encoding="UTF-8"?> <svg xmlns="http://www.w3.org/2000/svg" width="62" height="62" viewBox="0 0 62 62" fill="none"><circle cx="31" cy="31" r="31" fill="white"></circle><circle cx="31" cy="31" r="30.5" stroke="#2E3343" stroke-opacity="0.05"></circle><path d="M37.6667 17.6667V20.3334H41.6755C42.4069 20.3334 43 20.9266 43 21.6579V43.0088C43 43.7403 42.4068 44.3334 41.6755 44.3334H20.3245C19.593 44.3334 19 43.7402 19 43.0088V21.6579C19 20.9264 19.5933 20.3334 20.3245 20.3334H24.3333V17.6667H37.6667ZM24.3333 23H21.6667V41.6667H40.3333V23H37.6667V25.6667H24.3333V23ZM27 36.3334V39H24.3333V36.3334H27ZM27 32.3334V35H24.3333V32.3334H27ZM27 28.3334V31H24.3333V28.3334H27ZM35 20.3334H27V23H35V20.3334Z" fill="#F97A53"></path></svg> 