<?xml version="1.0" encoding="UTF-8"?> <svg xmlns="http://www.w3.org/2000/svg" width="62" height="62" viewBox="0 0 62 62" fill="none"><circle cx="31" cy="31" r="31" fill="white"></circle><circle cx="31" cy="31" r="30.5" stroke="#2E3343" stroke-opacity="0.05"></circle><path d="M32.3332 43V45.6667H29.6665V43H18.9998C18.2635 43 17.6665 42.4031 17.6665 41.6667V20.3333C17.6665 19.597 18.2635 19 18.9998 19H26.9998C28.5928 19 30.0226 19.6983 30.9998 20.8056C31.977 19.6983 33.4069 19 34.9998 19H42.9998C43.7362 19 44.3332 19.597 44.3332 20.3333V41.6667C44.3332 42.4031 43.7362 43 42.9998 43H32.3332ZM41.6665 40.3333V21.6667H34.9998C33.527 21.6667 32.3332 22.8606 32.3332 24.3333V40.3333H41.6665ZM29.6665 40.3333V24.3333C29.6665 22.8606 28.4726 21.6667 26.9998 21.6667H20.3332V40.3333H29.6665Z" fill="#AB5FE7"></path></svg> 