<?xml version="1.0" encoding="UTF-8"?> <svg xmlns="http://www.w3.org/2000/svg" width="62" height="62" viewBox="0 0 62 62" fill="none"><circle cx="31" cy="31" r="31" fill="white"></circle><circle cx="31" cy="31" r="30.5" stroke="#2E3343" stroke-opacity="0.05"></circle><path d="M43 46H19C18.1716 46 17.5 45.3284 17.5 44.5V17.5C17.5 16.6716 18.1716 16 19 16H43C43.8284 16 44.5 16.6716 44.5 17.5V44.5C44.5 45.3284 43.8284 46 43 46ZM41.5 43V19H20.5V43H41.5ZM23.5 22H29.5V28H23.5V22ZM23.5 31H38.5V34H23.5V31ZM23.5 37H38.5V40H23.5V37ZM32.5 23.5H38.5V26.5H32.5V23.5Z" fill="#009987"></path></svg> 