<?xml version="1.0" encoding="UTF-8"?> <svg xmlns="http://www.w3.org/2000/svg" width="62" height="62" viewBox="0 0 62 62" fill="none"><circle cx="31" cy="31" r="31" fill="white"></circle><circle cx="31" cy="31" r="30.5" stroke="#2E3343" stroke-opacity="0.05"></circle><path d="M31.75 43.375C37.0657 43.375 41.375 39.0657 41.375 33.75C41.375 28.4343 37.0657 24.125 31.75 24.125C26.4343 24.125 22.125 28.4343 22.125 33.75C22.125 39.0657 26.4343 43.375 31.75 43.375Z" fill="#EDE7F6"></path><path d="M31.7534 50.25C29.3806 50.2506 27.0356 49.7393 24.8784 48.7512C24.5465 48.5981 24.2891 48.3194 24.1627 47.9764C24.0364 47.6335 24.0515 47.2544 24.2046 46.9225C24.3578 46.5906 24.6365 46.3332 24.9795 46.2069C25.3224 46.0805 25.7015 46.0956 26.0334 46.2488C28.4277 47.3457 31.0868 47.732 33.6943 47.3616C36.3018 46.9912 38.7481 45.8797 40.7423 44.1593C42.7364 42.4389 44.1945 40.182 44.9432 37.657C45.6919 35.132 45.6997 32.445 44.9656 29.9157C44.2315 27.3864 42.7864 25.1211 40.8022 23.3892C38.818 21.6573 36.3782 20.5318 33.7729 20.1463C31.1675 19.7609 28.5063 20.1318 26.1056 21.2149C23.705 22.298 21.6659 24.0478 20.2309 26.2563C20.1316 26.4079 20.0033 26.5386 19.8535 26.6407C19.7038 26.7428 19.5353 26.8144 19.3578 26.8515C19.1804 26.8885 18.9973 26.8902 18.8192 26.8565C18.641 26.8228 18.4713 26.7543 18.3196 26.655C18.1679 26.5557 18.0373 26.4275 17.9352 26.2777C17.8331 26.1279 17.7614 25.9594 17.7244 25.782C17.6874 25.6045 17.6857 25.4215 17.7194 25.2433C17.7531 25.0652 17.8216 24.8954 17.9209 24.7438C19.4811 22.3487 21.6368 20.4 24.1767 19.0887C26.7166 17.7774 29.5536 17.1484 32.4097 17.2634C35.2658 17.3783 38.0431 18.2333 40.4694 19.7445C42.8957 21.2557 44.8878 23.3713 46.2505 25.884C47.6132 28.3967 48.2997 31.2204 48.2429 34.0782C48.186 36.9361 47.3877 39.7302 45.9261 42.1867C44.4645 44.6432 42.3899 46.6779 39.9054 48.0914C37.4209 49.5049 34.6118 50.2487 31.7534 50.25Z" fill="#B39DDB"></path><path d="M33.125 11.75H30.375C29.281 11.75 28.2318 12.1846 27.4582 12.9582C26.6846 13.7318 26.25 14.781 26.25 15.875V18.625C26.25 18.9897 26.3949 19.3394 26.6527 19.5973C26.9106 19.8551 27.2603 20 27.625 20H35.875C36.2397 20 36.5894 19.8551 36.8473 19.5973C37.1051 19.3394 37.25 18.9897 37.25 18.625V15.875C37.25 14.781 36.8154 13.7318 36.0418 12.9582C35.2682 12.1846 34.219 11.75 33.125 11.75ZM39.6975 27.3975C39.4706 27.1142 39.1409 26.9321 38.7803 26.8908C38.4197 26.8496 38.0574 26.9527 37.7725 27.1775L33.9087 30.2575C33.2651 29.8431 32.5155 29.6235 31.75 29.625C30.9342 29.625 30.1366 29.8669 29.4583 30.3202C28.7799 30.7734 28.2512 31.4177 27.939 32.1714C27.6268 32.9252 27.5451 33.7546 27.7043 34.5547C27.8634 35.3549 28.2563 36.0899 28.8332 36.6668C29.4101 37.2437 30.1451 37.6366 30.9453 37.7957C31.7454 37.9549 32.5748 37.8732 33.3286 37.561C34.0823 37.2488 34.7266 36.7201 35.1798 36.0417C35.6331 35.3634 35.875 34.5658 35.875 33.75C35.8732 33.2808 35.7894 32.8154 35.6275 32.375L39.4775 29.295C39.7529 29.0689 39.9298 28.7447 39.9708 28.3907C40.0118 28.0367 39.9139 27.6806 39.6975 27.3975ZM22.125 29.625H13.875C13.5103 29.625 13.1606 29.7699 12.9027 30.0277C12.6449 30.2856 12.5 30.6353 12.5 31C12.5 31.3647 12.6449 31.7144 12.9027 31.9723C13.1606 32.2301 13.5103 32.375 13.875 32.375H22.125C22.4897 32.375 22.8394 32.2301 23.0973 31.9723C23.3551 31.7144 23.5 31.3647 23.5 31C23.5 30.6353 23.3551 30.2856 23.0973 30.0277C22.8394 29.7699 22.4897 29.625 22.125 29.625ZM22.125 35.125H11.125C10.7603 35.125 10.4106 35.2699 10.1527 35.5277C9.89487 35.7856 9.75 36.1353 9.75 36.5C9.75 36.8647 9.89487 37.2144 10.1527 37.4723C10.4106 37.7301 10.7603 37.875 11.125 37.875H22.125C22.4897 37.875 22.8394 37.7301 23.0973 37.4723C23.3551 37.2144 23.5 36.8647 23.5 36.5C23.5 36.1353 23.3551 35.7856 23.0973 35.5277C22.8394 35.2699 22.4897 35.125 22.125 35.125ZM22.125 40.625H13.875C13.5103 40.625 13.1606 40.7699 12.9027 41.0277C12.6449 41.2856 12.5 41.6353 12.5 42C12.5 42.3647 12.6449 42.7144 12.9027 42.9723C13.1606 43.2301 13.5103 43.375 13.875 43.375H22.125C22.4897 43.375 22.8394 43.2301 23.0973 42.9723C23.3551 42.7144 23.5 42.3647 23.5 42C23.5 41.6353 23.3551 41.2856 23.0973 41.0277C22.8394 40.7699 22.4897 40.625 22.125 40.625Z" fill="#B39DDB"></path></svg> 