<?xml version="1.0" encoding="UTF-8"?> <svg xmlns="http://www.w3.org/2000/svg" width="62" height="62" viewBox="0 0 62 62" fill="none"><circle cx="31" cy="31" r="31" fill="white"></circle><circle cx="31" cy="31" r="30.5" stroke="#2E3343" stroke-opacity="0.05"></circle><path d="M26.9998 16.3333V19H34.9998V16.3333H37.6665V19H42.9998C43.7362 19 44.3332 19.5969 44.3332 20.3333V41.6666C44.3332 42.403 43.7362 43 42.9998 43H18.9998C18.2635 43 17.6665 42.403 17.6665 41.6666V20.3333C17.6665 19.5969 18.2635 19 18.9998 19H24.3332V16.3333H26.9998ZM41.6665 29.6666H20.3332V40.3333H41.6665V29.6666ZM25.6665 33.6666V36.3333H22.9998V33.6666H25.6665ZM38.9998 33.6666V36.3333H28.3332V33.6666H38.9998ZM24.3332 21.6666H20.3332V27H41.6665V21.6666H37.6665V24.3333H34.9998V21.6666H26.9998V24.3333H24.3332V21.6666Z" fill="#3558BA"></path></svg> 