<?xml version="1.0" encoding="UTF-8"?> <svg xmlns="http://www.w3.org/2000/svg" width="62" height="62" viewBox="0 0 62 62" fill="none"><circle cx="31" cy="31" r="31" fill="white"></circle><circle cx="31" cy="31" r="30.5" stroke="#2E3343" stroke-opacity="0.05"></circle><path d="M23 28.3333V41.6666H40.3333V28.3333H23ZM39 25.6666H41.6667C42.4031 25.6666 43 26.2636 43 27V43C43 43.7364 42.4031 44.3333 41.6667 44.3333H20.3333C19.597 44.3333 19 43.7364 19 43V27C19 26.2636 19.597 25.6666 20.3333 25.6666H23V24.3333C23 19.915 26.5817 16.3333 31 16.3333C35.4183 16.3333 39 19.915 39 24.3333V25.6666ZM36.3333 25.6666V24.3333C36.3333 21.3878 33.9455 19 31 19C28.0545 19 25.6667 21.3878 25.6667 24.3333V25.6666H36.3333ZM24.3333 29.6666H27V32.3333H24.3333V29.6666ZM24.3333 33.6666H27V36.3333H24.3333V33.6666ZM24.3333 37.6666H27V40.3333H24.3333V37.6666Z" fill="#1D4ED8"></path></svg> 