<?xml version="1.0" encoding="UTF-8"?> <svg xmlns="http://www.w3.org/2000/svg" width="62" height="62" viewBox="0 0 62 62" fill="none"><circle cx="31" cy="31" r="31" fill="white"></circle><circle cx="31" cy="31" r="30.5" stroke="#2E3343" stroke-opacity="0.05"></circle><g clip-path="url(#clip0_426_866)"><path d="M46.1663 22.8056L39.0603 15.6996C38.5163 15.1556 37.7683 14.8496 37.0203 14.8496H33.7223V20.7996C33.7223 21.4116 33.2123 21.9216 32.6003 21.9216H23.2843C22.6723 21.9216 22.1623 21.4116 22.1623 20.7996V14.8496H17.8783C16.2803 14.8496 14.9883 16.1416 14.9883 17.7396V44.2596C14.9883 45.8576 16.2803 47.1496 17.8783 47.1496H44.1603C45.7583 47.1496 47.0503 45.8576 47.0503 44.2596V24.8456C47.0163 24.0976 46.7103 23.3496 46.1663 22.8056ZM40.1483 40.5876C40.1483 41.1996 39.6383 41.7096 39.0263 41.7096H22.9443C22.3323 41.7096 21.8223 41.1996 21.8223 40.5876V29.4356C21.8223 28.8236 22.3323 28.3136 22.9443 28.3136H39.0603C39.6723 28.3136 40.1823 28.8236 40.1823 29.4356V40.5876H40.1483Z" fill="black"></path><path d="M29.0299 20.0176H31.2059C31.4439 20.0176 31.6479 19.8136 31.6479 19.5756V15.2916C31.6479 15.0536 31.4439 14.8496 31.2059 14.8496H29.0299C28.7919 14.8496 28.5879 15.0536 28.5879 15.2916V19.5416C28.5879 19.8136 28.7919 20.0176 29.0299 20.0176ZM35.7279 31.4416H26.2759C25.6299 31.4416 25.0859 31.9516 25.0859 32.6316C25.0859 33.2776 25.5959 33.8216 26.2759 33.8216H35.6939C36.3399 33.8216 36.8839 33.3116 36.8839 32.6316C36.8839 31.9516 36.3739 31.4416 35.7279 31.4416ZM35.7279 36.2696H26.2759C25.6299 36.2696 25.0859 36.7796 25.0859 37.4596C25.0859 38.1056 25.5959 38.6496 26.2759 38.6496H35.6939C36.3399 38.6496 36.8839 38.1396 36.8839 37.4596C36.8839 36.8136 36.3739 36.2696 35.7279 36.2696Z" fill="#1E8ED7"></path></g><defs><clipPath id="clip0_426_866"><rect width="34" height="34" fill="white" transform="translate(14 14)"></rect></clipPath></defs></svg> 