<?xml version="1.0" encoding="UTF-8"?> <svg xmlns="http://www.w3.org/2000/svg" width="62" height="62" viewBox="0 0 62 62" fill="none"><circle cx="31" cy="31" r="31" fill="white"></circle><circle cx="31" cy="31" r="30.5" stroke="#2E3343" stroke-opacity="0.05"></circle><path d="M40.5475 30.647L24.1404 41.5428C23.3803 42.0495 23 42.8728 23 43.6964V46.4203L42.8913 33.3709C43.7781 32.7374 44.3483 31.7237 44.3483 30.647C44.3483 29.57 43.8416 28.5563 42.8913 27.9228L23 15V17.5338C23 18.4209 23.4435 19.2442 24.1404 19.6877L40.5475 30.647Z" fill="#004CFF"></path><path d="M30.6652 31.5339C31.552 32.1039 32.6924 32.1039 33.5792 31.5339L34.9727 30.5837L24.5837 23.5522C23.9503 23.1087 23 23.5522 23 24.3755V26.466L28.3845 30.0769L30.6652 31.5339Z" fill="#004CFF"></path></svg> 