<?xml version="1.0" encoding="UTF-8"?> <svg xmlns="http://www.w3.org/2000/svg" width="62" height="62" viewBox="0 0 62 62" fill="none"><circle cx="31" cy="31" r="31" fill="white"></circle><circle cx="31" cy="31" r="30.5" stroke="#2E3343" stroke-opacity="0.05"></circle><path d="M26.6667 23.7778C26.6667 22.1823 25.3733 20.8889 23.7778 20.8889C22.1823 20.8889 20.8889 22.1823 20.8889 23.7778C20.8889 25.3733 22.1823 26.6667 23.7778 26.6667C25.3733 26.6667 26.6667 25.3733 26.6667 23.7778ZM29.5556 23.7778C29.5556 26.9688 26.9688 29.5556 23.7778 29.5556C20.5868 29.5556 18 26.9688 18 23.7778C18 20.5868 20.5868 18 23.7778 18C26.9688 18 29.5556 20.5868 29.5556 23.7778ZM44.7222 20.8889C44.7222 20.0911 44.0755 19.4444 43.2778 19.4444H34.6111C33.8134 19.4444 33.1667 20.0911 33.1667 20.8889C33.1667 21.6866 33.8134 22.3333 34.6111 22.3333H43.2778C44.0755 22.3333 44.7222 21.6866 44.7222 20.8889ZM44.7222 31C44.7222 30.2023 44.0755 29.5556 43.2778 29.5556H34.6111C33.8134 29.5556 33.1667 30.2023 33.1667 31C33.1667 31.7977 33.8134 32.4444 34.6111 32.4444H43.2778C44.0755 32.4444 44.7222 31.7977 44.7222 31ZM44.7222 41.1111C44.7222 40.3134 44.0755 39.6667 43.2778 39.6667H34.6111C33.8134 39.6667 33.1667 40.3134 33.1667 41.1111C33.1667 41.9089 33.8134 42.5556 34.6111 42.5556H43.2778C44.0755 42.5556 44.7222 41.9089 44.7222 41.1111ZM23.7778 41.1111C22.1823 41.1111 20.8889 39.8178 20.8889 38.2222C20.8889 36.6267 22.1823 35.3333 23.7778 35.3333C25.3733 35.3333 26.6667 36.6267 26.6667 38.2222C26.6667 39.8178 25.3733 41.1111 23.7778 41.1111ZM23.7778 44C26.9688 44 29.5556 41.4131 29.5556 38.2222C29.5556 35.0313 26.9688 32.4444 23.7778 32.4444C20.5868 32.4444 18 35.0313 18 38.2222C18 41.4131 20.5868 44 23.7778 44ZM23.7778 25.2222C24.5755 25.2222 25.2222 24.5755 25.2222 23.7778C25.2222 22.98 24.5755 22.3333 23.7778 22.3333C22.98 22.3333 22.3333 22.98 22.3333 23.7778C22.3333 24.5755 22.98 25.2222 23.7778 25.2222Z" fill="#F97A53"></path></svg> 