<?xml version="1.0" encoding="UTF-8"?> <svg xmlns="http://www.w3.org/2000/svg" width="62" height="62" viewBox="0 0 62 62" fill="none"><circle cx="31" cy="31" r="31" fill="white"></circle><circle cx="31" cy="31" r="30.5" stroke="#2E3343" stroke-opacity="0.05"></circle><g clip-path="url(#clip0_428_831)"><path d="M15.875 31.125C15.875 31.6773 16.3227 32.125 16.875 32.125H27.875C28.4273 32.125 28.875 31.6773 28.875 31.125V16.875C28.875 16.3227 28.4273 15.875 27.875 15.875H16.875C16.3227 15.875 15.875 16.3227 15.875 16.875V31.125ZM15.875 44.125C15.875 44.6773 16.3227 45.125 16.875 45.125H27.875C28.4273 45.125 28.875 44.6773 28.875 44.125V36.375C28.875 35.8227 28.4273 35.375 27.875 35.375H16.875C16.3227 35.375 15.875 35.8227 15.875 36.375V44.125ZM32.125 44.125C32.125 44.6773 32.5727 45.125 33.125 45.125H44.125C44.6773 45.125 45.125 44.6773 45.125 44.125V29.875C45.125 29.3227 44.6773 28.875 44.125 28.875H33.125C32.5727 28.875 32.125 29.3227 32.125 29.875V44.125ZM33.125 15.875C32.5727 15.875 32.125 16.3227 32.125 16.875V24.625C32.125 25.1773 32.5727 25.625 33.125 25.625H44.125C44.6773 25.625 45.125 25.1773 45.125 24.625V16.875C45.125 16.3227 44.6773 15.875 44.125 15.875H33.125Z" fill="#7F89F9"></path></g><defs><clipPath id="clip0_428_831"><rect width="39" height="39" fill="white" transform="translate(11 11)"></rect></clipPath></defs></svg> 