<?xml version="1.0" encoding="UTF-8"?> <svg xmlns="http://www.w3.org/2000/svg" width="62" height="62" viewBox="0 0 62 62" fill="none"><circle cx="31" cy="31" r="31" fill="white"></circle><circle cx="31" cy="31" r="30.5" stroke="#2E3343" stroke-opacity="0.05"></circle><path d="M21.5404 33H14.3737C13.8985 33 13.4428 33.1975 13.1068 33.5492C12.7708 33.9008 12.582 34.3777 12.582 34.875V44.25H23.332V34.875C23.332 34.3777 23.1433 33.9008 22.8073 33.5492C22.4713 33.1975 22.0155 33 21.5404 33ZM34.082 21.75H26.9154C26.4402 21.75 25.9845 21.9475 25.6485 22.2992C25.3125 22.6508 25.1237 23.1277 25.1237 23.625V44.25H35.8737V23.625C35.8737 23.1277 35.6849 22.6508 35.3489 22.2992C35.0129 21.9475 34.5572 21.75 34.082 21.75ZM46.6237 27.375H39.457C38.9819 27.375 38.5261 27.5725 38.1901 27.9242C37.8541 28.2758 37.6654 28.7527 37.6654 29.25V44.25H48.4154V29.25C48.4154 28.7527 48.2266 28.2758 47.8906 27.9242C47.5546 27.5725 47.0989 27.375 46.6237 27.375ZM30.4987 6.75L28.707 10.5L25.1237 11.0475L28.1104 13.6256L27.1769 18L30.4987 15.5006L33.8204 18L32.887 13.6256L35.8737 11.0475L32.2904 10.5L30.4987 6.75Z" fill="#FFBE55"></path></svg> 