<?xml version="1.0" encoding="UTF-8"?> <svg xmlns="http://www.w3.org/2000/svg" width="62" height="62" viewBox="0 0 62 62" fill="none"><circle cx="31" cy="31" r="31" fill="white"></circle><circle cx="31" cy="31" r="30.5" stroke="#2E3343" stroke-opacity="0.05"></circle><path d="M18.9998 19H42.9998C43.7362 19 44.3332 19.597 44.3332 20.3333V41.6667C44.3332 42.4031 43.7362 43 42.9998 43H18.9998C18.2635 43 17.6665 42.4031 17.6665 41.6667V20.3333C17.6665 19.597 18.2635 19 18.9998 19ZM20.3332 21.6667V40.3333H41.6665V21.6667H20.3332ZM41.6665 31L36.9525 35.714L35.0669 33.8284L37.8953 31L35.0669 28.1716L36.9525 26.286L41.6665 31ZM24.1044 31L26.9328 33.8284L25.0472 35.714L20.3332 31L25.0472 26.286L26.9328 28.1716L24.1044 31ZM29.9922 37.6667H27.1545L32.0074 24.3333H34.8452L29.9922 37.6667Z" fill="#F97A53"></path></svg> 