<?xml version="1.0" encoding="UTF-8"?> <svg xmlns="http://www.w3.org/2000/svg" width="62" height="62" viewBox="0 0 62 62" fill="none"><circle cx="31" cy="31" r="31" fill="white"></circle><circle cx="31" cy="31" r="30.5" stroke="#2E3343" stroke-opacity="0.05"></circle><path d="M45.6529 15H15.285C12.9252 15 11 16.9252 11 19.2229V33.3822V36.1767V46.2373L16.8997 40.4618H45.715C48.0748 40.4618 50 38.5366 50 36.2389V19.2229C49.9379 16.9252 48.0127 15 45.6529 15Z" fill="#09C269"></path><path d="M40.0645 24.8124C43.2938 24.8124 44.7843 27.3586 44.7843 29.7806C44.7843 30.4016 44.2874 30.8984 43.6664 30.8984H37.7046C38.0152 32.3267 39.0088 33.1341 40.6234 33.1341C41.8034 33.1341 42.4244 32.8857 43.0454 32.5752C43.1696 32.513 43.3559 32.4509 43.4801 32.4509C44.039 32.4509 44.5359 32.8857 44.5359 33.4446C44.5359 33.8172 44.2874 34.1277 43.9148 34.3761C43.1075 34.8108 42.2381 35.2455 40.4992 35.2455C37.2699 35.2455 35.3448 33.3204 35.3448 30.029C35.2827 26.2408 37.8909 24.8124 40.0645 24.8124ZM30.5629 23.1978C30.9355 23.1978 31.1839 23.5083 31.1839 23.8188V24.9987H32.9849C33.5438 24.9987 34.0406 25.4334 34.0406 25.9923C34.0406 26.5513 33.6059 26.986 32.9849 26.986H31.1839V32.3888C31.1839 33.1341 31.5566 33.1962 32.1155 33.1962C32.426 33.1962 32.6123 33.1341 32.7986 33.1341C32.9228 33.1341 33.1091 33.072 33.2333 33.072C33.668 33.072 34.2269 33.4446 34.2269 34.0035C34.2269 34.3761 33.9785 34.6866 33.6059 34.8729C33.047 35.1213 32.5502 35.2455 31.9292 35.2455C29.9419 35.2455 28.8862 34.314 28.8862 32.5131V27.0481H27.8304C27.4578 27.0481 27.2094 26.7376 27.2094 26.4271C27.2094 26.2408 27.2715 26.0545 27.4578 25.8681L29.9419 23.3841C30.0661 23.3841 30.2524 23.1978 30.5629 23.1978ZM18.9499 20.8379C19.5709 20.8379 20.0677 21.3347 20.0677 21.9557V34.0035C20.0677 34.6245 19.5709 35.1213 18.9499 35.1213C18.3288 35.1213 17.832 34.6245 17.832 34.0035V21.9557C17.832 21.3347 18.3288 20.8379 18.9499 20.8379ZM24.2906 24.9366C24.9116 24.9366 25.4085 25.4334 25.4085 26.0545V34.0035C25.4085 34.6245 24.9116 35.1213 24.2906 35.1213C23.6696 35.1213 23.1728 34.6245 23.1728 34.0035V26.0545C23.1728 25.4334 23.6696 24.9366 24.2906 24.9366ZM40.1266 26.8618C39.0709 26.8618 37.8909 27.4828 37.7046 29.0353H42.6107C42.3002 27.4828 41.1823 26.8618 40.1266 26.8618ZM24.3527 21.1484C25.0359 21.1484 25.5948 21.7073 25.5948 22.3904V22.4525C25.5948 23.1357 25.0359 23.6946 24.3527 23.6946H24.2285C23.5454 23.6946 22.9865 23.1357 22.9865 22.4525V22.3904C22.9865 21.7073 23.5454 21.1484 24.2285 21.1484H24.3527Z" fill="white"></path></svg> 