<?xml version="1.0" encoding="UTF-8"?> <svg xmlns="http://www.w3.org/2000/svg" width="62" height="62" viewBox="0 0 62 62" fill="none"><circle cx="31" cy="31" r="31" fill="white"></circle><circle cx="31" cy="31" r="30.5" stroke="#2E3343" stroke-opacity="0.05"></circle><path d="M44.3332 20.3333C44.3332 19.597 43.7362 19 42.9998 19H18.9998C18.2635 19 17.6665 19.597 17.6665 20.3333V41.6667C17.6665 42.4031 18.2635 43 18.9998 43H42.9998C43.7362 43 44.3332 42.4031 44.3332 41.6667V20.3333ZM20.3332 35H24.8879C25.9166 37.3545 28.2661 39 30.9998 39C33.7336 39 36.083 37.3545 37.1118 35H41.6665V40.3333H20.3332V35ZM20.3332 21.6667H41.6665V32.3333H34.9998C34.9998 34.5425 33.209 36.3333 30.9998 36.3333C28.7906 36.3333 26.9998 34.5425 26.9998 32.3333H20.3332V21.6667ZM36.3332 29.6667H32.3332V33.6667H29.6665V29.6667H25.6665L30.9998 23.6667L36.3332 29.6667Z" fill="#1D4ED8"></path></svg> 