<?xml version="1.0" encoding="UTF-8"?> <svg xmlns="http://www.w3.org/2000/svg" width="62" height="62" viewBox="0 0 62 62" fill="none"><circle cx="31" cy="31" r="31" fill="white"></circle><circle cx="31" cy="31" r="30.5" stroke="#2E3343" stroke-opacity="0.05"></circle><path d="M40.3332 44.3334H21.6665C19.4574 44.3334 17.6665 42.5426 17.6665 40.3334V19C17.6665 18.2636 18.2635 17.6667 18.9998 17.6667H37.6665C38.4029 17.6667 38.9998 18.2636 38.9998 19V35H44.3332V40.3334C44.3332 42.5426 42.5424 44.3334 40.3332 44.3334ZM38.9998 37.6667V40.3334C38.9998 41.0698 39.5968 41.6667 40.3332 41.6667C41.0696 41.6667 41.6665 41.0698 41.6665 40.3334V37.6667H38.9998ZM36.3332 41.6667V20.3334H20.3332V40.3334C20.3332 41.0698 20.9301 41.6667 21.6665 41.6667H36.3332ZM22.9998 24.3334H33.6665V27H22.9998V24.3334ZM22.9998 29.6667H33.6665V32.3334H22.9998V29.6667ZM22.9998 35H29.6665V37.6667H22.9998V35Z" fill="#009987"></path></svg> 