<?xml version="1.0" encoding="UTF-8"?> <svg xmlns="http://www.w3.org/2000/svg" width="62" height="62" viewBox="0 0 62 62" fill="none"><circle cx="31" cy="31" r="31" fill="white"></circle><circle cx="31" cy="31" r="30.5" stroke="#2E3343" stroke-opacity="0.05"></circle><path d="M29.6667 17.6667C35.09 17.6667 39.568 21.7142 40.2449 26.9533L43.2456 31.6716C43.4432 31.9823 43.4033 32.4463 42.9457 32.6423L40.3333 33.7614V37.6667C40.3333 39.1395 39.1395 40.3334 37.6667 40.3334H35.0013L35 44.3334H23L23.0003 39.4082C23.0004 37.8336 22.418 36.345 21.3407 35.0015C19.8761 33.1751 19 30.8566 19 28.3334C19 22.4423 23.7756 17.6667 29.6667 17.6667ZM29.6667 20.3334C25.2484 20.3334 21.6667 23.9151 21.6667 28.3334C21.6667 30.1799 22.2909 31.9239 23.421 33.3332C24.8795 35.152 25.6671 37.223 25.667 39.4084L25.6668 41.6667H32.3343L32.3356 37.6667H37.6667V32.0026L39.7329 31.1175L37.6763 27.8835L37.6001 27.2949C37.0887 23.3352 33.6991 20.3334 29.6667 20.3334ZM29.6667 24.3334C30.4031 24.3334 31 24.9303 31 25.6667V27H32.3333C33.0697 27 33.6667 27.597 33.6667 28.3334C33.6667 29.0698 33.0697 29.6667 32.3333 29.6667H31V31C31 31.7364 30.4031 32.3334 29.6667 32.3334C28.9303 32.3334 28.3333 31.7364 28.3333 31V29.6654L27 29.6667C26.2636 29.6667 25.6667 29.0698 25.6667 28.3334C25.6667 27.597 26.2636 27 27 27L28.3333 26.9987V25.6667C28.3333 24.9303 28.9303 24.3334 29.6667 24.3334Z" fill="#D5AD21"></path></svg> 