<?xml version="1.0" encoding="UTF-8"?> <svg xmlns="http://www.w3.org/2000/svg" width="62" height="62" viewBox="0 0 62 62" fill="none"><circle cx="31" cy="31" r="31" fill="white"></circle><circle cx="31" cy="31" r="30.5" stroke="#2E3343" stroke-opacity="0.05"></circle><path d="M21.6667 25.6667V41.6667H40.3333V25.6667H21.6667ZM21.6667 23H40.3333V20.3334H21.6667V23ZM41.6667 44.3334H20.3333C19.597 44.3334 19 43.7364 19 43V19C19 18.2636 19.597 17.6667 20.3333 17.6667H41.6667C42.4031 17.6667 43 18.2636 43 19V43C43 43.7364 42.4031 44.3334 41.6667 44.3334ZM24.3333 28.3334H29.6667V33.6667H24.3333V28.3334ZM24.3333 36.3334H37.6667V39H24.3333V36.3334ZM32.3333 29.6667H37.6667V32.3334H32.3333V29.6667Z" fill="#009987"></path></svg> 