<svg xmlns="http://www.w3.org/2000/svg" width="1025" height="1047" viewBox="0 0 1025 1047" fill="none"><path opacity="0.2" d="M0.532959 1045.72V2.34842e-05" stroke="#8B8B8B" stroke-width="1.06597"></path><path opacity="0.2" d="M85.8108 1045.72V2.34842e-05" stroke="#8B8B8B" stroke-width="1.06597"></path><path opacity="0.2" d="M171.089 1045.72V2.34842e-05" stroke="#8B8B8B" stroke-width="1.06597"></path><path opacity="0.2" d="M256.366 1045.72V2.34842e-05" stroke="#8B8B8B" stroke-width="1.06597"></path><path opacity="0.2" d="M341.644 1045.72V2.34842e-05" stroke="#8B8B8B" stroke-width="1.06597"></path><path opacity="0.2" d="M426.922 1045.72V2.34842e-05" stroke="#8B8B8B" stroke-width="1.06597"></path><path opacity="0.2" d="M512.2 1045.72V2.34842e-05" stroke="#8B8B8B" stroke-width="1.06597"></path><path opacity="0.2" d="M597.478 1045.72V2.34842e-05" stroke="#8B8B8B" stroke-width="1.06597"></path><path opacity="0.2" d="M682.755 1045.72V2.34842e-05" stroke="#8B8B8B" stroke-width="1.06597"></path><path opacity="0.2" d="M768.033 1045.72V2.34842e-05" stroke="#8B8B8B" stroke-width="1.06597"></path><path opacity="0.2" d="M853.311 1045.72V2.34842e-05" stroke="#8B8B8B" stroke-width="1.06597"></path><path opacity="0.2" d="M938.589 1045.72V2.34842e-05" stroke="#8B8B8B" stroke-width="1.06597"></path><path opacity="0.2" d="M1023.87 1045.72V2.34842e-05" stroke="#8B8B8B" stroke-width="1.06597"></path><g opacity="0.2"><path d="M597.477 640.719H682.755V524.528H597.477V640.719Z" fill="white" fill-opacity="0.1"></path><path d="M597.477 640.719V640.186H682.755V640.719V641.252H597.477V640.719ZM682.755 524.528V525.061H597.477V524.528V523.995H682.755V524.528Z" fill="#8B8B8B"></path></g><rect opacity="0.2" width="85.2778" height="116.191" transform="matrix(1 0 0 -1 426.922 869.833)" fill="white" fill-opacity="0.1" stroke="#8B8B8B" stroke-width="1.06597"></rect><rect opacity="0.2" width="85" height="162" transform="matrix(1 0 0 -1 85.6997 771)" fill="white" fill-opacity="0.1" stroke="#8B8B8B" stroke-width="1.06597"></rect><g opacity="0.2"><path d="M938.7 778H1023.7V581H938.7V778Z" fill="white" fill-opacity="0.1"></path><path d="M938.7 778V777.467H1023.7V778V778.533H938.7V778ZM1023.7 581V581.533H938.7V581V580.467H1023.7V581Z" fill="#8B8B8B"></path></g><rect opacity="0.2" width="85.2778" height="116.191" transform="matrix(1 0 0 -1 768.033 928.462)" fill="white" fill-opacity="0.1" stroke="#8B8B8B" stroke-width="1.06597"></rect><g opacity="0.2"><path d="M85.8108 161.469H171.089V45.2778H85.8108V161.469Z" fill="white" fill-opacity="0.1"></path><path d="M85.8108 161.469V160.936H171.089V161.469V162.002H85.8108V161.469ZM171.089 45.2778V45.8108H85.8108V45.2778V44.7448H171.089V45.2778Z" fill="#8B8B8B"></path></g><rect opacity="0.2" width="85.2778" height="116.191" transform="matrix(1 0 0 -1 768.033 375.222)" fill="white" fill-opacity="0.1" stroke="#8B8B8B" stroke-width="1.06597"></rect><rect opacity="0.2" width="85.2778" height="116.191" transform="matrix(1 0 0 -1 426.922 282.483)" fill="white" fill-opacity="0.1" stroke="#8B8B8B" stroke-width="1.06597"></rect><rect opacity="0.2" width="85.2778" height="116.191" transform="matrix(1 0 0 -1 256.368 505.719)" fill="white" fill-opacity="0.1" stroke="#8B8B8B" stroke-width="1.06597"></rect><rect opacity="0.2" width="85.2778" height="116.191" transform="matrix(1 0 0 -1 256.366 1045.72)" fill="white" fill-opacity="0.1" stroke="#8B8B8B" stroke-width="1.06597"></rect></svg>