<svg xmlns="http://www.w3.org/2000/svg" width="74" height="113" viewBox="0 0 74 113" fill="none"><rect width="74" height="74" rx="30" fill="#FFEFE6"></rect><path d="M46.9166 51.1666H27.0833C24.736 51.1666 22.8333 49.2639 22.8333 46.9166V24.25C22.8333 23.4676 23.4675 22.8333 24.2499 22.8333H44.0833C44.8657 22.8333 45.4999 23.4676 45.4999 24.25V41.25H51.1666V46.9166C51.1666 49.2639 49.2639 51.1666 46.9166 51.1666ZM45.4999 44.0833V46.9166C45.4999 47.6991 46.1342 48.3333 46.9166 48.3333C47.699 48.3333 48.3333 47.6991 48.3333 46.9166V44.0833H45.4999ZM42.6666 48.3333V25.6666H25.6666V46.9166C25.6666 47.6991 26.3009 48.3333 27.0833 48.3333H42.6666ZM28.4999 29.9166H39.8333V32.75H28.4999V29.9166ZM28.4999 35.5833H39.8333V38.4166H28.4999V35.5833ZM28.4999 41.25H35.5833V44.0833H28.4999V41.25Z" fill="#DD6801"></path><rect x="7" y="89" width="60" height="24" rx="10" fill="#DD6801"></rect><path d="M18.1183 106V96.5455H24.0459V97.7734H19.5448V100.654H23.7366V101.877H19.5448V104.772H24.1013V106H18.1183ZM26.93 98.9091L28.495 101.67L30.0738 98.9091H31.5834L29.3721 102.455L31.6019 106H30.0923L28.495 103.35L26.9023 106H25.3881L27.5948 102.455L25.4158 98.9091H26.93ZM35.0515 106.157C34.6022 106.157 34.1959 106.074 33.8328 105.908C33.4696 105.738 33.1819 105.494 32.9695 105.174C32.7602 104.854 32.6556 104.461 32.6556 103.996C32.6556 103.596 32.7325 103.267 32.8864 103.009C33.0403 102.75 33.248 102.545 33.5096 102.395C33.7712 102.244 34.0636 102.13 34.3868 102.053C34.7099 101.976 35.0392 101.917 35.3747 101.877C35.7994 101.828 36.1441 101.788 36.4088 101.757C36.6735 101.724 36.8658 101.67 36.9858 101.596C37.1059 101.522 37.1659 101.402 37.1659 101.236V101.203C37.1659 100.8 37.052 100.488 36.8243 100.266C36.5996 100.045 36.2641 99.9339 35.8179 99.9339C35.3531 99.9339 34.9869 100.037 34.7191 100.243C34.4545 100.446 34.2714 100.673 34.1698 100.922L32.8726 100.626C33.0264 100.196 33.2511 99.8478 33.5466 99.5831C33.8451 99.3153 34.1883 99.1214 34.576 99.0014C34.9638 98.8783 35.3716 98.8168 35.7994 98.8168C36.0825 98.8168 36.3826 98.8506 36.6996 98.9183C37.0197 98.983 37.3182 99.103 37.5952 99.2784C37.8753 99.4538 38.1046 99.7047 38.2831 100.031C38.4616 100.354 38.5508 100.774 38.5508 101.291V106H37.2028V105.031H37.1474C37.0582 105.209 36.9243 105.384 36.7458 105.557C36.5673 105.729 36.338 105.872 36.0579 105.986C35.7779 106.1 35.4424 106.157 35.0515 106.157ZM35.3516 105.049C35.7332 105.049 36.0595 104.974 36.3303 104.823C36.6042 104.672 36.812 104.475 36.9535 104.232C37.0982 103.986 37.1705 103.723 37.1705 103.442V102.528C37.1213 102.578 37.0258 102.624 36.8843 102.667C36.7458 102.707 36.5873 102.742 36.4088 102.773C36.2303 102.801 36.0564 102.827 35.8871 102.852C35.7178 102.873 35.5763 102.892 35.4624 102.907C35.1946 102.941 34.95 102.998 34.7284 103.078C34.5099 103.158 34.3344 103.273 34.2021 103.424C34.0728 103.572 34.0082 103.769 34.0082 104.015C34.0082 104.357 34.1344 104.615 34.3868 104.79C34.6391 104.963 34.9607 105.049 35.3516 105.049ZM40.3893 106V98.9091H41.7143V100.063H41.802C41.9497 99.6723 42.1913 99.3677 42.5268 99.1491C42.8622 98.9276 43.2639 98.8168 43.7317 98.8168C44.2056 98.8168 44.6026 98.9276 44.9227 99.1491C45.2459 99.3707 45.4844 99.6754 45.6383 100.063H45.7121C45.8814 99.6847 46.1507 99.383 46.52 99.1584C46.8893 98.9306 47.3294 98.8168 47.8403 98.8168C48.4836 98.8168 49.0083 99.0183 49.4146 99.4215C49.8239 99.8247 50.0285 100.433 50.0285 101.245V106H48.6482V101.374C48.6482 100.894 48.5174 100.546 48.2558 100.331C47.9942 100.116 47.6818 100.008 47.3187 100.008C46.8693 100.008 46.52 100.146 46.2707 100.423C46.0214 100.697 45.8968 101.05 45.8968 101.48V106H44.5211V101.287C44.5211 100.902 44.4011 100.593 44.161 100.359C43.9209 100.125 43.6086 100.008 43.2239 100.008C42.9623 100.008 42.7207 100.077 42.4991 100.216C42.2806 100.351 42.1036 100.54 41.9682 100.783C41.8358 101.027 41.7697 101.308 41.7697 101.628V106H40.3893ZM57.1922 100.64L55.9411 100.862C55.8888 100.702 55.8057 100.549 55.6918 100.405C55.581 100.26 55.4302 100.142 55.2394 100.049C55.0486 99.957 54.8101 99.9109 54.5238 99.9109C54.133 99.9109 53.8067 99.9986 53.5451 100.174C53.2835 100.346 53.1527 100.569 53.1527 100.843C53.1527 101.08 53.2405 101.271 53.4159 101.416C53.5913 101.56 53.8745 101.679 54.2653 101.771L55.3917 102.03C56.0442 102.181 56.5305 102.413 56.8505 102.727C57.1706 103.041 57.3307 103.449 57.3307 103.95C57.3307 104.375 57.2075 104.754 56.9613 105.086C56.7182 105.415 56.3781 105.674 55.9411 105.862C55.5071 106.049 55.004 106.143 54.4315 106.143C53.6375 106.143 52.9896 105.974 52.488 105.635C51.9863 105.294 51.6785 104.809 51.5647 104.181L52.8988 103.978C52.9819 104.326 53.1527 104.589 53.4113 104.767C53.6698 104.943 54.0068 105.031 54.4223 105.031C54.8747 105.031 55.2363 104.937 55.5071 104.749C55.778 104.558 55.9134 104.326 55.9134 104.052C55.9134 103.83 55.8303 103.644 55.6641 103.493C55.501 103.342 55.2502 103.229 54.9116 103.152L53.7113 102.888C53.0496 102.738 52.5603 102.498 52.2433 102.168C51.9294 101.839 51.7724 101.422 51.7724 100.917C51.7724 100.499 51.8894 100.132 52.1233 99.8185C52.3572 99.5046 52.6803 99.2599 53.0927 99.0845C53.5051 98.906 53.9776 98.8168 54.51 98.8168C55.2763 98.8168 55.8795 98.983 56.3196 99.3153C56.7598 99.6446 57.0506 100.086 57.1922 100.64Z" fill="white"></path><path d="M31 84L31 96H19L31 84Z" fill="#DD6801"></path></svg>