<svg xmlns="http://www.w3.org/2000/svg" width="74" height="113" viewBox="0 0 74 113" fill="none"><rect width="74" height="74" rx="30" fill="#C8F0FF"></rect><rect x="21.5" y="21.5" width="31" height="31" rx="3.5" stroke="#0078A4" stroke-width="3"></rect><rect x="27.7197" y="31.0282" width="18.748" height="3.30847" rx="1.65423" fill="#0078A4"></rect><rect x="27.7197" y="38.748" width="18.748" height="3.30847" rx="1.65423" fill="#0078A4"></rect><rect x="7" y="89" width="60" height="24" rx="10" fill="#0078A4"></rect><path d="M19.3497 105V95.5455H25.2127V96.7734H20.7762V99.6541H24.7926V100.877H20.7762V105H19.3497ZM29.3225 105.143C28.6577 105.143 28.0776 104.991 27.5821 104.686C27.0866 104.381 26.7019 103.955 26.428 103.407C26.154 102.859 26.0171 102.219 26.0171 101.487C26.0171 100.751 26.154 100.108 26.428 99.5572C26.7019 99.0063 27.0866 98.5785 27.5821 98.2738C28.0776 97.9691 28.6577 97.8168 29.3225 97.8168C29.9873 97.8168 30.5674 97.9691 31.0629 98.2738C31.5584 98.5785 31.9431 99.0063 32.217 99.5572C32.4909 100.108 32.6279 100.751 32.6279 101.487C32.6279 102.219 32.4909 102.859 32.217 103.407C31.9431 103.955 31.5584 104.381 31.0629 104.686C30.5674 104.991 29.9873 105.143 29.3225 105.143ZM29.3271 103.984C29.758 103.984 30.115 103.871 30.3981 103.643C30.6813 103.415 30.8906 103.112 31.026 102.733C31.1645 102.355 31.2337 101.938 31.2337 101.482C31.2337 101.03 31.1645 100.614 31.026 100.236C30.8906 99.8542 30.6813 99.5479 30.3981 99.3171C30.115 99.0863 29.758 98.9709 29.3271 98.9709C28.8932 98.9709 28.5331 99.0863 28.2468 99.3171C27.9637 99.5479 27.7529 99.8542 27.6144 100.236C27.479 100.614 27.4113 101.03 27.4113 101.482C27.4113 101.938 27.479 102.355 27.6144 102.733C27.7529 103.112 27.9637 103.415 28.2468 103.643C28.5331 103.871 28.8932 103.984 29.3271 103.984ZM34.1686 105V97.9091H35.5028V99.0355H35.5767C35.7059 98.6539 35.9337 98.3538 36.2599 98.1353C36.5892 97.9137 36.9616 97.8029 37.3771 97.8029C37.4633 97.8029 37.5648 97.806 37.6818 97.8121C37.8018 97.8183 37.8957 97.826 37.9634 97.8352V99.1555C37.908 99.1402 37.8095 99.1232 37.6679 99.1048C37.5264 99.0832 37.3848 99.0724 37.2432 99.0724C36.917 99.0724 36.6261 99.1417 36.3707 99.2802C36.1183 99.4156 35.9183 99.6049 35.7706 99.848C35.6228 100.088 35.549 100.362 35.549 100.67V105H34.1686ZM39.1579 105V97.9091H40.4828V99.0632H40.5705C40.7183 98.6723 40.9599 98.3677 41.2953 98.1491C41.6308 97.9276 42.0324 97.8168 42.5002 97.8168C42.9742 97.8168 43.3712 97.9276 43.6913 98.1491C44.0144 98.3707 44.2529 98.6754 44.4068 99.0632H44.4807C44.65 98.6847 44.9193 98.383 45.2886 98.1584C45.6579 97.9306 46.098 97.8168 46.6089 97.8168C47.2521 97.8168 47.7769 98.0183 48.1831 98.4215C48.5924 98.8247 48.7971 99.4325 48.7971 100.245V105H47.4168V100.374C47.4168 99.8942 47.286 99.5464 47.0244 99.331C46.7628 99.1155 46.4504 99.0078 46.0872 99.0078C45.6379 99.0078 45.2886 99.1463 45.0393 99.4233C44.79 99.6972 44.6654 100.05 44.6654 100.48V105H43.2896V100.287C43.2896 99.9019 43.1696 99.5926 42.9296 99.3587C42.6895 99.1248 42.3771 99.0078 41.9924 99.0078C41.7308 99.0078 41.4892 99.0771 41.2676 99.2156C41.0491 99.351 40.8721 99.5402 40.7367 99.7834C40.6044 100.027 40.5382 100.308 40.5382 100.628V105H39.1579ZM55.9607 99.6403L54.7097 99.8619C54.6573 99.7018 54.5742 99.5495 54.4604 99.4048C54.3496 99.2602 54.1988 99.1417 54.0079 99.0494C53.8171 98.957 53.5786 98.9109 53.2924 98.9109C52.9015 98.9109 52.5753 98.9986 52.3137 99.174C52.0521 99.3464 51.9213 99.5695 51.9213 99.8434C51.9213 100.08 52.009 100.271 52.1844 100.416C52.3599 100.56 52.643 100.679 53.0339 100.771L54.1603 101.03C54.8128 101.181 55.299 101.413 55.6191 101.727C55.9392 102.041 56.0992 102.449 56.0992 102.95C56.0992 103.375 55.9761 103.754 55.7299 104.086C55.4868 104.415 55.1467 104.674 54.7097 104.862C54.2757 105.049 53.7725 105.143 53.2001 105.143C52.406 105.143 51.7582 104.974 51.2565 104.635C50.7549 104.294 50.4471 103.809 50.3332 103.181L51.6674 102.978C51.7505 103.326 51.9213 103.589 52.1798 103.767C52.4383 103.943 52.7753 104.031 53.1908 104.031C53.6432 104.031 54.0049 103.937 54.2757 103.749C54.5465 103.558 54.682 103.326 54.682 103.052C54.682 102.83 54.5989 102.644 54.4327 102.493C54.2695 102.342 54.0187 102.229 53.6802 102.152L52.4799 101.888C51.8182 101.738 51.3289 101.498 51.0119 101.168C50.6979 100.839 50.541 100.422 50.541 99.9173C50.541 99.4987 50.6579 99.1325 50.8918 98.8185C51.1257 98.5046 51.4489 98.2599 51.8613 98.0845C52.2737 97.906 52.7461 97.8168 53.2785 97.8168C54.0449 97.8168 54.6481 97.983 55.0882 98.3153C55.5283 98.6446 55.8191 99.0863 55.9607 99.6403Z" fill="white"></path><path d="M31 84L31 96H19L31 84Z" fill="#0078A4"></path></svg>