<svg xmlns="http://www.w3.org/2000/svg" width="26" height="26" viewBox="0 0 26 26" fill="none"><path d="M14.0844 21.5999C18.3596 21.0668 21.6677 17.4199 21.6677 13.0003C21.6677 8.21385 17.7876 4.33366 13.0011 4.33366C8.21459 4.33366 4.33439 8.21385 4.33439 13.0003C4.33439 17.4199 7.64256 21.0668 11.9177 21.5999V15.167H9.75106V13.0003H11.9177V11.2083C11.9177 9.75959 12.0685 9.23425 12.3518 8.70462C12.635 8.17498 13.0507 7.75933 13.5803 7.47608C13.9949 7.25437 14.5092 7.12055 15.4079 7.06316C15.7646 7.04038 16.2263 7.06943 16.7927 7.15032V9.20866H16.2511C15.2573 9.20866 14.8473 9.25559 14.6021 9.38668C14.4501 9.468 14.3438 9.57437 14.2624 9.72642C14.1313 9.97152 14.0844 10.2146 14.0844 11.2083V13.0003H16.7927L16.2511 15.167H14.0844V21.5999ZM13.0011 23.8337C7.01797 23.8337 2.16772 18.9834 2.16772 13.0003C2.16772 7.01724 7.01797 2.16699 13.0011 2.16699C18.9841 2.16699 23.8344 7.01724 23.8344 13.0003C23.8344 18.9834 18.9841 23.8337 13.0011 23.8337Z" fill="#2E3343"></path></svg>