<svg xmlns="http://www.w3.org/2000/svg" width="93" height="16" viewBox="0 0 93 16" fill="none"><path d="M8.34399 0.5L10.0278 5.68237H15.4769L11.0685 8.88525L12.7524 14.0676L8.34399 10.8647L3.9356 14.0676L5.61946 8.88525L1.21107 5.68237H6.66014L8.34399 0.5Z" fill="white"></path><path d="M46.5259 0.5L48.2097 5.68237H53.6588L49.2504 8.88525L50.9343 14.0676L46.5259 10.8647L42.1175 14.0676L43.8013 8.88525L39.393 5.68237H44.842L46.5259 0.5Z" fill="white"></path><path d="M27.4348 0.5L29.1187 5.68237H34.5677L30.1593 8.88525L31.8432 14.0676L27.4348 10.8647L23.0264 14.0676L24.7103 8.88525L20.3019 5.68237H25.751L27.4348 0.5Z" fill="white"></path><path d="M65.6167 0.5L67.3006 5.68237H72.7496L68.3412 8.88525L70.0251 14.0676L65.6167 10.8647L61.2083 14.0676L62.8922 8.88525L58.4838 5.68237H63.9328L65.6167 0.5Z" fill="white"></path><path d="M84.7076 0.5L86.3915 5.68237H91.8406L87.4322 8.88525L89.116 14.0676L84.7076 10.8647L80.2993 14.0676L81.9831 8.88525L77.5747 5.68237H83.0238L84.7076 0.5Z" fill="white"></path></svg>