<svg xmlns="http://www.w3.org/2000/svg" width="24" height="24" viewBox="0 0 24 24" fill="none"><path d="M20.8067 6.36917C20.7209 6.03407 20.4785 5.78124 20.2008 5.70324C19.7075 5.5657 17.3125 5.25 12.25 5.25C7.1875 5.25 4.79298 5.56582 4.29768 5.70363C4.02263 5.78013 3.78024 6.03292 3.69339 6.36917C3.57099 6.84663 3.25 8.84544 3.25 12C3.25 15.1545 3.57099 17.1534 3.69372 17.6322C3.77907 17.966 4.0215 18.2188 4.29797 18.2964C4.79298 18.4342 7.1875 18.75 12.25 18.75C17.3125 18.75 19.7075 18.4343 20.2023 18.2964C20.4774 18.2199 20.7198 17.9671 20.8067 17.6308C20.9291 17.1534 21.25 15.15 21.25 12C21.25 8.85 20.9291 6.84663 20.8067 6.36917ZM22.9861 5.81045C23.5 7.815 23.5 12 23.5 12C23.5 12 23.5 16.185 22.9861 18.1895C22.6998 19.2982 21.8643 20.1695 20.8052 20.4641C18.8831 21 12.25 21 12.25 21C12.25 21 5.62081 21 3.69481 20.4641C2.63179 20.1655 1.79629 19.2941 1.51386 18.1895C1 16.185 1 12 1 12C1 12 1 7.815 1.51386 5.81045C1.8002 4.70182 2.63572 3.83045 3.69481 3.5359C5.62081 3 12.25 3 12.25 3C12.25 3 18.8831 3 20.8052 3.5359C21.8682 3.83455 22.7037 4.7059 22.9861 5.81045ZM10 15.9375V8.0625L16.75 12L10 15.9375Z" fill="#2E3343"></path></svg>