<svg xmlns="http://www.w3.org/2000/svg" width="71" height="108" viewBox="0 0 71 108" fill="none"><rect width="70.83" height="68.6407" rx="30" fill="#E7FFFC"></rect><path d="M28.8172 23.3866V28.4665H23.7373V23.3866H28.8172ZM20.3507 20V31.8531H32.2038V20H20.3507ZM37.2837 20H50.83V23.3866H37.2837V20ZM37.2837 31.8531H50.83V35.2396H37.2837V31.8531ZM37.2837 43.7061H50.83V47.0927H37.2837V43.7061ZM33.4011 40.6702L31.0064 38.2755L25.4306 43.8514L22.3947 40.8155L20 43.2101L25.4306 48.6407L33.4011 40.6702Z" fill="#00A362"></path><rect x="1.91504" y="83.6407" width="67" height="24" rx="10" fill="#00A362"></rect><path d="M14.5789 96.5754H15.9823L16.9702 97.8633L17.4365 98.4358L19.0107 100.49H17.5519L16.4993 99.119L16.1392 98.6205L14.5789 96.5754ZM19.3154 94.9134C19.3154 95.9229 19.1307 96.7908 18.7614 97.5171C18.3921 98.2404 17.8858 98.7974 17.2426 99.1883C16.6024 99.5761 15.8746 99.77 15.059 99.77C14.2403 99.77 13.5094 99.5761 12.8662 99.1883C12.226 98.7974 11.7213 98.2388 11.352 97.5125C10.9826 96.7862 10.798 95.9198 10.798 94.9134C10.798 93.904 10.9826 93.0376 11.352 92.3143C11.7213 91.588 12.226 91.031 12.8662 90.6432C13.5094 90.2523 14.2403 90.0569 15.059 90.0569C15.8746 90.0569 16.6024 90.2523 17.2426 90.6432C17.8858 91.031 18.3921 91.588 18.7614 92.3143C19.1307 93.0376 19.3154 93.904 19.3154 94.9134ZM17.9027 94.9134C17.9027 94.144 17.7781 93.4962 17.5288 92.9699C17.2826 92.4405 16.9441 92.0404 16.5132 91.7696C16.0854 91.4957 15.6007 91.3587 15.059 91.3587C14.5142 91.3587 14.028 91.4957 13.6002 91.7696C13.1724 92.0404 12.8339 92.4405 12.5846 92.9699C12.3383 93.4962 12.2152 94.144 12.2152 94.9134C12.2152 95.6828 12.3383 96.3322 12.5846 96.8616C12.8339 97.3879 13.1724 97.7879 13.6002 98.0619C14.028 98.3327 14.5142 98.4681 15.059 98.4681C15.6007 98.4681 16.0854 98.3327 16.5132 98.0619C16.9441 97.7879 17.2826 97.3879 17.5288 96.8616C17.7781 96.3322 17.9027 95.6828 17.9027 94.9134ZM25.4749 96.7V92.5498H26.8599V99.6407H25.5026V98.4127H25.4288C25.2656 98.7913 25.004 99.1067 24.644 99.3591C24.2869 99.6084 23.8422 99.733 23.3098 99.733C22.8543 99.733 22.4511 99.633 22.1003 99.433C21.7525 99.2298 21.4786 98.9298 21.2785 98.5327C21.0816 98.1357 20.9831 97.6448 20.9831 97.0601V92.5498H22.3634V96.8939C22.3634 97.3771 22.4973 97.7618 22.765 98.048C23.0328 98.3342 23.3806 98.4773 23.8084 98.4773C24.0669 98.4773 24.3239 98.4127 24.5793 98.2834C24.8378 98.1542 25.0517 97.9588 25.221 97.6972C25.3934 97.4356 25.478 97.1032 25.4749 96.7ZM28.7145 99.6407V92.5498H30.0949V99.6407H28.7145ZM29.4116 91.4557C29.1716 91.4557 28.9654 91.3757 28.793 91.2156C28.6237 91.0525 28.5391 90.8586 28.5391 90.6339C28.5391 90.4062 28.6237 90.2123 28.793 90.0523C28.9654 89.8892 29.1716 89.8076 29.4116 89.8076C29.6517 89.8076 29.8563 89.8892 30.0256 90.0523C30.198 90.2123 30.2841 90.4062 30.2841 90.6339C30.2841 90.8586 30.198 91.0525 30.0256 91.2156C29.8563 91.3757 29.6517 91.4557 29.4116 91.4557ZM31.8041 99.6407V98.6943L35.645 93.8147V93.7501H31.9288V92.5498H37.367V93.5562L33.6738 98.3758V98.4404H37.4962V99.6407H31.8041ZM38.977 99.6407V98.6943L42.8179 93.8147V93.7501H39.1016V92.5498H44.5398V93.5562L40.8466 98.3758V98.4404H44.6691V99.6407H38.977ZM49.1505 99.7838C48.4519 99.7838 47.8502 99.6345 47.3455 99.336C46.8438 99.0344 46.456 98.6112 46.1821 98.0665C45.9113 97.5187 45.7759 96.877 45.7759 96.1414C45.7759 95.4151 45.9113 94.7749 46.1821 94.2209C46.456 93.667 46.8377 93.2346 47.327 92.9237C47.8194 92.6129 48.395 92.4575 49.0536 92.4575C49.4537 92.4575 49.8415 92.5236 50.2169 92.656C50.5924 92.7883 50.9294 92.996 51.2279 93.2792C51.5265 93.5623 51.7619 93.9301 51.9343 94.3825C52.1066 94.8319 52.1928 95.3781 52.1928 96.0214V96.5107H46.5561V95.4766H50.8402C50.8402 95.1135 50.7663 94.7919 50.6186 94.5118C50.4708 94.2286 50.2631 94.0055 49.9953 93.8424C49.7307 93.6793 49.4198 93.5977 49.0628 93.5977C48.675 93.5977 48.3365 93.6931 48.0472 93.8839C47.761 94.0717 47.5394 94.3179 47.3824 94.6226C47.2285 94.9242 47.1516 95.252 47.1516 95.6059V96.4138C47.1516 96.8877 47.2347 97.2909 47.4009 97.6233C47.5701 97.9557 47.8056 98.2096 48.1072 98.385C48.4088 98.5574 48.7612 98.6435 49.1644 98.6435C49.426 98.6435 49.6645 98.6066 49.8799 98.5327C50.0954 98.4558 50.2816 98.3419 50.4385 98.1911C50.5955 98.0403 50.7155 97.8541 50.7986 97.6325L52.1051 97.868C52.0004 98.2527 51.8127 98.5897 51.5419 98.879C51.2741 99.1652 50.9371 99.3883 50.5309 99.5484C50.1277 99.7053 49.6676 99.7838 49.1505 99.7838ZM59.0379 94.281L57.7868 94.5026C57.7345 94.3425 57.6514 94.1902 57.5375 94.0455C57.4267 93.9009 57.2759 93.7824 57.0851 93.6901C56.8943 93.5977 56.6558 93.5516 56.3695 93.5516C55.9787 93.5516 55.6524 93.6393 55.3908 93.8147C55.1292 93.987 54.9984 94.2102 54.9984 94.4841C54.9984 94.7211 55.0862 94.9119 55.2616 95.0565C55.437 95.2012 55.7202 95.3197 56.111 95.412L57.2374 95.6705C57.8899 95.8213 58.3762 96.0537 58.6962 96.3676C59.0163 96.6815 59.1764 97.0893 59.1764 97.591C59.1764 98.0157 59.0533 98.3942 58.807 98.7266C58.5639 99.0559 58.2238 99.3145 57.7868 99.5022C57.3529 99.6899 56.8497 99.7838 56.2772 99.7838C55.4832 99.7838 54.8353 99.6145 54.3337 99.276C53.832 98.9344 53.5243 98.4496 53.4104 97.8218L54.7445 97.6187C54.8276 97.9665 54.9984 98.2296 55.257 98.4081C55.5155 98.5835 55.8525 98.6712 56.268 98.6712C56.7204 98.6712 57.082 98.5774 57.3528 98.3896C57.6237 98.1988 57.7591 97.9665 57.7591 97.6925C57.7591 97.4709 57.676 97.2848 57.5098 97.1339C57.3467 96.9831 57.0959 96.8693 56.7573 96.7923L55.557 96.5292C54.8953 96.3784 54.406 96.1383 54.089 95.809C53.7751 95.4797 53.6181 95.0627 53.6181 94.558C53.6181 94.1394 53.7351 93.7732 53.969 93.4592C54.2029 93.1453 54.526 92.9006 54.9384 92.7252C55.3508 92.5467 55.8233 92.4575 56.3557 92.4575C57.122 92.4575 57.7252 92.6236 58.1654 92.956C58.6055 93.2853 58.8963 93.727 59.0379 94.281Z" fill="white"></path><path d="M25.915 78.6407L25.915 90.6407H13.915L25.915 78.6407Z" fill="#00A362"></path></svg>