<svg xmlns="http://www.w3.org/2000/svg" width="104" height="17" viewBox="0 0 104 17" fill="none"><path d="M8.5 0L10.4084 5.87336L16.584 5.87336L11.5878 9.50329L13.4962 15.3766L8.5 11.7467L3.50383 15.3766L5.41219 9.50329L0.416019 5.87336L6.59163 5.87336L8.5 0Z" fill="#CF9706"></path><path d="M51.7727 0L53.6811 5.87336L59.8567 5.87336L54.8605 9.50329L56.7689 15.3766L51.7727 11.7467L46.7765 15.3766L48.6849 9.50329L43.6887 5.87336L49.8643 5.87336L51.7727 0Z" fill="#CF9706"></path><path d="M30.1364 0L32.0447 5.87336L38.2203 5.87336L33.2242 9.50329L35.1325 15.3766L30.1364 11.7467L25.1402 15.3766L27.0485 9.50329L22.0524 5.87336L28.228 5.87336L30.1364 0Z" fill="#CF9706"></path><path d="M73.4091 0L75.3174 5.87336L81.493 5.87336L76.4969 9.50329L78.4052 15.3766L73.4091 11.7467L68.4129 15.3766L70.3213 9.50329L65.3251 5.87336L71.5007 5.87336L73.4091 0Z" fill="#CF9706"></path><path d="M95.0454 0L96.9538 5.87336L103.129 5.87336L98.1332 9.50329L100.042 15.3766L95.0454 11.7467L90.0492 15.3766L91.9576 9.50329L86.9614 5.87336L93.137 5.87336L95.0454 0Z" fill="#CF9706"></path></svg>