<svg xmlns="http://www.w3.org/2000/svg" width="92" height="15" viewBox="0 0 92 15" fill="none"><path d="M7.5 0L9.18386 5.18237H14.6329L10.2245 8.38525L11.9084 13.5676L7.5 10.3647L3.09161 13.5676L4.77547 8.38525L0.367076 5.18237H5.81614L7.5 0Z" fill="#101010"></path><path d="M45.6819 0L47.3657 5.18237H52.8148L48.4064 8.38525L50.0903 13.5676L45.6819 10.3647L41.2735 13.5676L42.9574 8.38525L38.549 5.18237H43.998L45.6819 0Z" fill="#101010"></path><path d="M26.5908 0L28.2747 5.18237H33.7237L29.3154 8.38525L30.9992 13.5676L26.5908 10.3647L22.1824 13.5676L23.8663 8.38525L19.4579 5.18237H24.907L26.5908 0Z" fill="#101010"></path><path d="M64.7727 0L66.4566 5.18237H71.9056L67.4972 8.38525L69.1811 13.5676L64.7727 10.3647L60.3643 13.5676L62.0482 8.38525L57.6398 5.18237H63.0889L64.7727 0Z" fill="#101010"></path><path d="M83.8638 0L85.5476 5.18237H90.9967L86.5883 8.38525L88.2722 13.5676L83.8638 10.3647L79.4554 13.5676L81.1392 8.38525L76.7308 5.18237H82.1799L83.8638 0Z" fill="#101010"></path></svg>