<svg xmlns="http://www.w3.org/2000/svg" width="104" height="17" viewBox="0 0 104 17" fill="none"><path d="M8.5 0L10.4084 5.87336L16.584 5.87336L11.5878 9.50329L13.4962 15.3766L8.5 11.7467L3.50383 15.3766L5.41219 9.50329L0.416019 5.87336L6.59163 5.87336L8.5 0Z" fill="#CF9706"></path><path d="M51.7727 0L53.6811 5.87336L59.8567 5.87336L54.8605 9.50329L56.7689 15.3766L51.7727 11.7467L46.7765 15.3766L48.6849 9.50329L43.6887 5.87336L49.8643 5.87336L51.7727 0Z" fill="#CF9706"></path><path d="M30.1365 0L32.0448 5.87336L38.2205 5.87336L33.2243 9.50329L35.1326 15.3766L30.1365 11.7467L25.1403 15.3766L27.0487 9.50329L22.0525 5.87336L28.2281 5.87336L30.1365 0Z" fill="#CF9706"></path><path d="M73.4092 0L75.3175 5.87336L81.4932 5.87336L76.497 9.50329L78.4054 15.3766L73.4092 11.7467L68.413 15.3766L70.3214 9.50329L65.3252 5.87336L71.5008 5.87336L73.4092 0Z" fill="#CF9706"></path><path d="M95.0454 0L96.9538 5.87336L103.129 5.87336L98.1332 9.50329L100.042 15.3766L95.0454 11.7467L90.0492 15.3766L91.9576 9.50329L86.9614 5.87336L93.137 5.87336L95.0454 0Z" fill="#CF9706"></path></svg>