<svg xmlns="http://www.w3.org/2000/svg" width="121" height="93" viewBox="0 0 121 93" fill="none"><g opacity="0.2"><rect x="0.544922" y="83.5659" width="9.03408" height="9.03408" rx="4.51704" fill="#AB5FE7"></rect><rect x="0.544922" y="55.7104" width="9.03408" height="9.03408" rx="4.51704" fill="#AB5FE7"></rect><rect x="0.544922" y="27.8555" width="9.03408" height="9.03408" rx="4.51704" fill="#AB5FE7"></rect><rect x="0.544922" width="9.03408" height="9.03408" rx="4.51704" fill="#AB5FE7"></rect><rect x="28.4005" y="83.5659" width="9.03408" height="9.03408" rx="4.51704" fill="#AB5FE7"></rect><rect x="28.4005" y="55.7104" width="9.03408" height="9.03408" rx="4.51704" fill="#F97A53"></rect><rect x="28.4005" y="27.8555" width="9.03408" height="9.03408" rx="4.51704" fill="#AB5FE7"></rect><rect x="28.4005" width="9.03408" height="9.03408" rx="4.51704" fill="#AB5FE7"></rect><rect x="56.2559" y="83.5659" width="9.03408" height="9.03408" rx="4.51704" fill="#AB5FE7"></rect><rect x="56.2559" y="55.7104" width="9.03408" height="9.03408" rx="4.51704" fill="#AB5FE7"></rect><rect x="56.2559" y="27.8555" width="9.03408" height="9.03408" rx="4.51704" fill="#AB5FE7"></rect><rect x="56.2559" width="9.03408" height="9.03408" rx="4.51704" fill="#AB5FE7"></rect><rect x="84.1111" y="83.5659" width="9.03408" height="9.03408" rx="4.51704" fill="#AB5FE7"></rect><rect x="84.1111" y="55.7104" width="9.03408" height="9.03408" rx="4.51704" fill="#AB5FE7"></rect><rect x="84.1111" y="27.8555" width="9.03408" height="9.03408" rx="4.51704" fill="#F97A53"></rect><rect x="84.1111" width="9.03408" height="9.03408" rx="4.51704" fill="#AB5FE7"></rect><rect x="111.966" y="83.5659" width="9.03408" height="9.03408" rx="4.51704" fill="#AB5FE7"></rect><rect x="111.966" y="55.7104" width="9.03408" height="9.03408" rx="4.51704" fill="#AB5FE7"></rect><rect x="111.966" y="27.8555" width="9.03408" height="9.03408" rx="4.51704" fill="#AB5FE7"></rect><rect x="111.966" width="9.03408" height="9.03408" rx="4.51704" fill="#AB5FE7"></rect></g></svg>