<svg xmlns="http://www.w3.org/2000/svg" width="71" height="109" viewBox="0 0 71 109" fill="none"><rect width="70.8333" height="70" rx="30" fill="#F0ECFE"></rect><path d="M30 26.6667C30 24.8257 28.5076 23.3333 26.6667 23.3333C24.8257 23.3333 23.3333 24.8257 23.3333 26.6667C23.3333 28.5076 24.8257 30 26.6667 30C28.5076 30 30 28.5076 30 26.6667ZM33.3333 26.6667C33.3333 30.3486 30.3486 33.3333 26.6667 33.3333C22.9848 33.3333 20 30.3486 20 26.6667C20 22.9848 22.9848 20 26.6667 20C30.3486 20 33.3333 22.9848 33.3333 26.6667ZM50.8333 23.3333C50.8333 22.4129 50.0871 21.6667 49.1667 21.6667H39.1667C38.2462 21.6667 37.5 22.4129 37.5 23.3333C37.5 24.2538 38.2462 25 39.1667 25H49.1667C50.0871 25 50.8333 24.2538 50.8333 23.3333ZM50.8333 35C50.8333 34.0795 50.0871 33.3333 49.1667 33.3333H39.1667C38.2462 33.3333 37.5 34.0795 37.5 35C37.5 35.9205 38.2462 36.6667 39.1667 36.6667H49.1667C50.0871 36.6667 50.8333 35.9205 50.8333 35ZM50.8333 46.6667C50.8333 45.7462 50.0871 45 49.1667 45H39.1667C38.2462 45 37.5 45.7462 37.5 46.6667C37.5 47.5871 38.2462 48.3333 39.1667 48.3333H49.1667C50.0871 48.3333 50.8333 47.5871 50.8333 46.6667ZM26.6667 46.6667C24.8257 46.6667 23.3333 45.1743 23.3333 43.3333C23.3333 41.4923 24.8257 40 26.6667 40C28.5076 40 30 41.4923 30 43.3333C30 45.1743 28.5076 46.6667 26.6667 46.6667ZM26.6667 50C30.3486 50 33.3333 47.0152 33.3333 43.3333C33.3333 39.6515 30.3486 36.6667 26.6667 36.6667C22.9848 36.6667 20 39.6515 20 43.3333C20 47.0152 22.9848 50 26.6667 50ZM26.6667 28.3333C27.5871 28.3333 28.3333 27.5871 28.3333 26.6667C28.3333 25.7462 27.5871 25 26.6667 25C25.7462 25 25 25.7462 25 26.6667C25 27.5871 25.7462 28.3333 26.6667 28.3333Z" fill="#8E00FF"></path><rect x="1.91675" y="85" width="67" height="24" rx="10" fill="#8E00FF"></rect><path d="M19.5046 94.0291C19.4554 93.5921 19.2523 93.2536 18.8953 93.0135C18.5383 92.7704 18.0889 92.6488 17.5473 92.6488C17.1595 92.6488 16.824 92.7103 16.5409 92.8335C16.2577 92.9535 16.0377 93.1197 15.8807 93.332C15.7268 93.5413 15.6499 93.7798 15.6499 94.0476C15.6499 94.2723 15.7022 94.4661 15.8068 94.6293C15.9146 94.7924 16.0546 94.9293 16.2269 95.0401C16.4024 95.1478 16.5901 95.2386 16.7902 95.3125C16.9902 95.3833 17.1826 95.4418 17.3672 95.4879L18.2905 95.728C18.5921 95.8018 18.9014 95.9019 19.2184 96.0281C19.5354 96.1542 19.8293 96.3204 20.1002 96.5266C20.371 96.7328 20.5895 96.9883 20.7557 97.293C20.925 97.5977 21.0096 97.9624 21.0096 98.3871C21.0096 98.9226 20.8711 99.3981 20.5941 99.8136C20.3202 100.229 19.9217 100.557 19.3985 100.797C18.8783 101.037 18.249 101.157 17.5103 101.157C16.8025 101.157 16.19 101.045 15.673 100.82C15.1559 100.595 14.7512 100.277 14.4588 99.8643C14.1665 99.4489 14.0049 98.9564 13.9741 98.3871H15.4052C15.4329 98.7287 15.5437 99.0134 15.7376 99.2411C15.9346 99.4658 16.1854 99.6335 16.4901 99.7443C16.7978 99.852 17.1348 99.9059 17.5011 99.9059C17.9043 99.9059 18.2628 99.8428 18.5767 99.7166C18.8937 99.5874 19.143 99.4089 19.3246 99.1811C19.5062 98.9503 19.597 98.681 19.597 98.3732C19.597 98.0932 19.5169 97.8639 19.3569 97.6854C19.2 97.5069 18.9861 97.3591 18.7152 97.2422C18.4475 97.1252 18.1443 97.0221 17.8058 96.9329L16.6886 96.6282C15.9315 96.422 15.3313 96.1188 14.8882 95.7188C14.4481 95.3187 14.228 94.7893 14.228 94.1307C14.228 93.5859 14.3757 93.1104 14.6712 92.7042C14.9666 92.2979 15.3667 91.9825 15.8715 91.7578C16.3762 91.5301 16.9456 91.4162 17.5796 91.4162C18.2197 91.4162 18.7845 91.5285 19.2738 91.7532C19.7662 91.9779 20.154 92.2872 20.4372 92.6811C20.7203 93.072 20.868 93.5213 20.8803 94.0291H19.5046ZM27.0953 98.0593V93.9091H28.4802V101H27.123V99.772H27.0491C26.886 100.151 26.6244 100.466 26.2643 100.718C25.9073 100.968 25.4626 101.092 24.9302 101.092C24.4747 101.092 24.0715 100.992 23.7206 100.792C23.3729 100.589 23.099 100.289 22.8989 99.892C22.7019 99.495 22.6034 99.0041 22.6034 98.4194V93.9091H23.9838V98.2532C23.9838 98.7364 24.1177 99.1211 24.3854 99.4073C24.6532 99.6935 25.0009 99.8366 25.4287 99.8366C25.6873 99.8366 25.9442 99.772 26.1997 99.6428C26.4582 99.5135 26.6721 99.3181 26.8414 99.0565C27.0137 98.7949 27.0984 98.4625 27.0953 98.0593ZM30.3349 101V93.9091H31.6691V95.0355H31.7429C31.8722 94.6539 32.0999 94.3538 32.4262 94.1353C32.7555 93.9137 33.1279 93.8029 33.5433 93.8029C33.6295 93.8029 33.7311 93.806 33.848 93.8121C33.9681 93.8183 34.0619 93.826 34.1296 93.8352V95.1555C34.0742 95.1402 33.9758 95.1232 33.8342 95.1048C33.6926 95.0832 33.551 95.0724 33.4095 95.0724C33.0832 95.0724 32.7924 95.1417 32.537 95.2802C32.2846 95.4156 32.0845 95.6049 31.9368 95.848C31.7891 96.0881 31.7152 96.362 31.7152 96.6697V101H30.3349ZM41.606 93.9091L39.0346 101H37.5574L34.9814 93.9091H36.4633L38.2591 99.3658H38.3329L40.1241 93.9091H41.606ZM45.7182 101.143C45.0195 101.143 44.4178 100.994 43.9131 100.695C43.4115 100.394 43.0237 99.9705 42.7498 99.4258C42.4789 98.878 42.3435 98.2363 42.3435 97.5007C42.3435 96.7744 42.4789 96.1342 42.7498 95.5803C43.0237 95.0263 43.4053 94.5939 43.8946 94.283C44.3871 93.9722 44.9626 93.8168 45.6212 93.8168C46.0213 93.8168 46.4091 93.8829 46.7846 94.0153C47.16 94.1476 47.497 94.3554 47.7956 94.6385C48.0941 94.9216 48.3295 95.2894 48.5019 95.7418C48.6742 96.1912 48.7604 96.7375 48.7604 97.3807V97.87H43.1237V96.8359H47.4078C47.4078 96.4728 47.3339 96.1512 47.1862 95.8711C47.0385 95.5879 46.8307 95.3648 46.563 95.2017C46.2983 95.0386 45.9874 94.957 45.6304 94.957C45.2427 94.957 44.9041 95.0524 44.6148 95.2433C44.3286 95.431 44.107 95.6772 43.95 95.9819C43.7962 96.2835 43.7192 96.6113 43.7192 96.9652V97.7731C43.7192 98.247 43.8023 98.6502 43.9685 98.9826C44.1378 99.315 44.3732 99.5689 44.6748 99.7443C44.9764 99.9167 45.3288 100.003 45.732 100.003C45.9936 100.003 46.2321 99.9659 46.4476 99.892C46.663 99.8151 46.8492 99.7012 47.0061 99.5504C47.1631 99.3996 47.2831 99.2134 47.3662 98.9918L48.6727 99.2273C48.5681 99.612 48.3803 99.949 48.1095 100.238C47.8417 100.525 47.5047 100.748 47.0985 100.908C46.6953 101.065 46.2352 101.143 45.7182 101.143ZM50.9613 103.659C50.7551 103.659 50.5674 103.642 50.3981 103.608C50.2288 103.578 50.1027 103.544 50.0196 103.507L50.3519 102.376C50.6043 102.443 50.829 102.473 51.0259 102.463C51.2229 102.454 51.3968 102.38 51.5476 102.242C51.7015 102.103 51.8369 101.877 51.9539 101.563L52.1247 101.092L49.5302 93.9091H51.0075L52.8033 99.4119H52.8772L54.673 93.9091H56.1549L53.2326 101.946C53.0972 102.316 52.9249 102.628 52.7156 102.884C52.5063 103.142 52.257 103.336 51.9677 103.465C51.6784 103.594 51.3429 103.659 50.9613 103.659Z" fill="white"></path><path d="M25.9167 80L25.9167 92H13.9167L25.9167 80Z" fill="#8E00FF"></path></svg>