<svg xmlns="http://www.w3.org/2000/svg" width="71" height="109" viewBox="0 0 71 109" fill="none"><rect width="70.8333" height="70" rx="30" fill="#F0ECFE"></rect><path d="M30 26.6667C30 24.8257 28.5076 23.3333 26.6667 23.3333C24.8257 23.3333 23.3333 24.8257 23.3333 26.6667C23.3333 28.5076 24.8257 30 26.6667 30C28.5076 30 30 28.5076 30 26.6667ZM33.3333 26.6667C33.3333 30.3486 30.3486 33.3333 26.6667 33.3333C22.9848 33.3333 20 30.3486 20 26.6667C20 22.9848 22.9848 20 26.6667 20C30.3486 20 33.3333 22.9848 33.3333 26.6667ZM50.8333 23.3333C50.8333 22.4129 50.0871 21.6667 49.1667 21.6667H39.1667C38.2462 21.6667 37.5 22.4129 37.5 23.3333C37.5 24.2538 38.2462 25 39.1667 25H49.1667C50.0871 25 50.8333 24.2538 50.8333 23.3333ZM50.8333 35C50.8333 34.0795 50.0871 33.3333 49.1667 33.3333H39.1667C38.2462 33.3333 37.5 34.0795 37.5 35C37.5 35.9205 38.2462 36.6667 39.1667 36.6667H49.1667C50.0871 36.6667 50.8333 35.9205 50.8333 35ZM50.8333 46.6667C50.8333 45.7462 50.0871 45 49.1667 45H39.1667C38.2462 45 37.5 45.7462 37.5 46.6667C37.5 47.5871 38.2462 48.3333 39.1667 48.3333H49.1667C50.0871 48.3333 50.8333 47.5871 50.8333 46.6667ZM26.6667 46.6667C24.8257 46.6667 23.3333 45.1743 23.3333 43.3333C23.3333 41.4923 24.8257 40 26.6667 40C28.5076 40 30 41.4923 30 43.3333C30 45.1743 28.5076 46.6667 26.6667 46.6667ZM26.6667 50C30.3486 50 33.3333 47.0152 33.3333 43.3333C33.3333 39.6515 30.3486 36.6667 26.6667 36.6667C22.9848 36.6667 20 39.6515 20 43.3333C20 47.0152 22.9848 50 26.6667 50ZM26.6667 28.3333C27.5871 28.3333 28.3333 27.5871 28.3333 26.6667C28.3333 25.7462 27.5871 25 26.6667 25C25.7462 25 25 25.7462 25 26.6667C25 27.5871 25.7462 28.3333 26.6667 28.3333Z" fill="#973DE0"></path><rect x="1.91669" y="85" width="67" height="24" rx="10" fill="#973DE0"></rect><path d="M17.307 93.031C17.1077 93.031 16.904 93.0483 16.696 93.083C16.488 93.1177 16.2974 93.1827 16.124 93.278C15.9507 93.3647 15.8077 93.4903 15.695 93.655C15.5824 93.811 15.526 94.0103 15.526 94.253C15.526 94.617 15.6474 94.8943 15.89 95.085C16.1327 95.267 16.423 95.4057 16.761 95.501C17.0037 95.5703 17.2464 95.6353 17.489 95.696C17.7404 95.7567 17.97 95.8087 18.178 95.852C18.542 95.93 18.8844 96.0253 19.205 96.138C19.5344 96.2507 19.8204 96.4023 20.063 96.593C20.3057 96.775 20.4964 97.009 20.635 97.295C20.7824 97.5723 20.856 97.919 20.856 98.335C20.856 98.829 20.765 99.2493 20.583 99.596C20.4097 99.9427 20.1714 100.229 19.868 100.454C19.5647 100.679 19.2094 100.844 18.802 100.948C18.3947 101.052 17.957 101.104 17.489 101.104C17.0124 101.104 16.5574 101.056 16.124 100.961C15.6994 100.857 15.318 100.697 14.98 100.48C14.642 100.255 14.3604 99.9687 14.135 99.622C13.9097 99.2753 13.7667 98.8593 13.706 98.374H15.266C15.3354 98.634 15.448 98.8507 15.604 99.024C15.76 99.1973 15.9377 99.336 16.137 99.44C16.345 99.544 16.566 99.6177 16.8 99.661C17.034 99.7043 17.2637 99.726 17.489 99.726C17.7317 99.726 17.9657 99.7087 18.191 99.674C18.4164 99.6307 18.6114 99.5613 18.776 99.466C18.9407 99.3707 19.075 99.245 19.179 99.089C19.283 98.933 19.335 98.7293 19.335 98.478C19.335 98.1313 19.244 97.88 19.062 97.724C18.88 97.5593 18.6374 97.438 18.334 97.36C17.918 97.2387 17.489 97.1347 17.047 97.048C16.6137 96.9527 16.202 96.8313 15.812 96.684C15.552 96.5887 15.3137 96.476 15.097 96.346C14.8804 96.216 14.6897 96.06 14.525 95.878C14.3604 95.696 14.2304 95.4837 14.135 95.241C14.0484 94.9897 14.005 94.6993 14.005 94.37C14.005 93.8673 14.1004 93.447 14.291 93.109C14.4817 92.7623 14.7287 92.485 15.032 92.277C15.344 92.069 15.695 91.9217 16.085 91.835C16.475 91.7397 16.8737 91.692 17.281 91.692C17.7144 91.692 18.126 91.744 18.516 91.848C18.906 91.9433 19.2527 92.095 19.556 92.303C19.8594 92.511 20.102 92.7797 20.284 93.109C20.4747 93.4383 20.5874 93.837 20.622 94.305H19.14C19.1054 94.071 19.0317 93.876 18.919 93.72C18.815 93.564 18.6807 93.4383 18.516 93.343C18.36 93.239 18.178 93.1653 17.97 93.122C17.762 93.07 17.541 93.0397 17.307 93.031ZM25.3576 99.804C25.9296 99.804 26.3369 99.6437 26.5796 99.323C26.8223 99.0023 26.9436 98.5473 26.9436 97.958V94.149H28.4126V98.01C28.4126 98.582 28.3346 99.0673 28.1786 99.466C28.0226 99.856 27.8103 100.172 27.5416 100.415C27.2729 100.649 26.9523 100.822 26.5796 100.935C26.2156 101.039 25.8083 101.091 25.3576 101.091C24.4043 101.091 23.6589 100.844 23.1216 100.35C22.5929 99.856 22.3286 99.076 22.3286 98.01V94.149H23.7976V97.958C23.7976 98.5473 23.9233 99.0023 24.1746 99.323C24.4346 99.635 24.8289 99.7953 25.3576 99.804ZM29.9972 101V94.149H31.3882L31.4662 95.124C31.9948 94.396 32.7142 94.032 33.6242 94.032C33.7108 94.032 33.7932 94.0363 33.8712 94.045C33.9578 94.045 34.0358 94.0493 34.1052 94.058V95.436C34.0012 95.436 33.8972 95.4403 33.7932 95.449C33.6978 95.449 33.6025 95.449 33.5072 95.449C33.1258 95.4577 32.8052 95.527 32.5452 95.657C32.2938 95.7783 32.0858 95.943 31.9212 96.151C31.7652 96.359 31.6525 96.606 31.5832 96.892C31.5138 97.1693 31.4792 97.4683 31.4792 97.789V101H29.9972ZM34.2826 94.149H35.9206L37.8186 99.583L39.7036 94.149H41.3416L38.7676 101H36.8566L34.2826 94.149ZM43.394 98.075C43.4113 98.3263 43.4633 98.5603 43.55 98.777C43.6366 98.9937 43.7536 99.1843 43.901 99.349C44.057 99.505 44.2433 99.6307 44.46 99.726C44.6853 99.8213 44.9453 99.869 45.24 99.869C45.552 99.869 45.838 99.8127 46.098 99.7C46.358 99.5873 46.5486 99.3923 46.67 99.115H48.191C48.1043 99.4617 47.9613 99.7607 47.762 100.012C47.5713 100.263 47.3416 100.471 47.073 100.636C46.813 100.792 46.5226 100.909 46.202 100.987C45.89 101.056 45.5563 101.091 45.201 101.091C44.655 101.091 44.174 101.009 43.758 100.844C43.3506 100.679 43.0083 100.441 42.731 100.129C42.4536 99.817 42.2456 99.4487 42.107 99.024C41.977 98.5907 41.912 98.1053 41.912 97.568C41.912 97.048 41.9856 96.5757 42.133 96.151C42.2803 95.7177 42.4926 95.345 42.77 95.033C43.056 94.721 43.3983 94.4783 43.797 94.305C44.1956 94.123 44.6506 94.032 45.162 94.032C45.6993 94.032 46.163 94.123 46.553 94.305C46.943 94.4783 47.268 94.7167 47.528 95.02C47.7966 95.3233 47.996 95.6787 48.126 96.086C48.256 96.4933 48.321 96.9353 48.321 97.412C48.321 97.6373 48.308 97.8583 48.282 98.075H43.394ZM46.878 96.957C46.8606 96.437 46.696 96.034 46.384 95.748C46.072 95.462 45.669 95.319 45.175 95.319C44.8976 95.319 44.655 95.3623 44.447 95.449C44.239 95.5357 44.0613 95.6527 43.914 95.8C43.7753 95.9473 43.6626 96.1207 43.576 96.32C43.4893 96.5193 43.433 96.7317 43.407 96.957H46.878ZM55.9932 94.149V99.908C55.9932 100.298 55.9845 100.697 55.9672 101.104C55.9585 101.511 55.8892 101.91 55.7592 102.3C55.5599 102.924 55.2002 103.409 54.6802 103.756C54.1602 104.111 53.4625 104.289 52.5872 104.289C52.0672 104.289 51.5645 104.22 51.0792 104.081C50.6025 103.951 50.1519 103.726 49.7272 103.405C49.8225 103.206 49.9135 102.998 50.0002 102.781C50.0955 102.573 50.1909 102.365 50.2862 102.157C50.5722 102.382 50.8972 102.573 51.2612 102.729C51.6339 102.885 52.0585 102.963 52.5352 102.963C52.9945 102.963 53.3542 102.885 53.6142 102.729C53.8742 102.573 54.0692 102.361 54.1992 102.092C54.3379 101.832 54.4245 101.529 54.4592 101.182C54.5025 100.844 54.5242 100.497 54.5242 100.142C54.2815 100.489 53.9782 100.736 53.6142 100.883C53.2589 101.03 52.8559 101.1 52.4052 101.091C51.8939 101.1 51.4562 101.026 51.0922 100.87C50.7282 100.714 50.4422 100.497 50.2342 100.22C50.0262 99.9427 49.8789 99.6133 49.7922 99.232C49.7055 98.8507 49.6622 98.4347 49.6622 97.984V94.149H51.1312V97.698C51.1312 97.9753 51.1485 98.244 51.1832 98.504C51.2265 98.7553 51.3045 98.9807 51.4172 99.18C51.5385 99.3707 51.7032 99.5267 51.9112 99.648C52.1192 99.7607 52.3922 99.817 52.7302 99.817C53.0769 99.817 53.3629 99.7477 53.5882 99.609C53.8222 99.4703 54.0042 99.2927 54.1342 99.076C54.2729 98.8507 54.3682 98.595 54.4202 98.309C54.4809 98.023 54.5112 97.7283 54.5112 97.425V94.149H55.9932Z" fill="white"></path><path d="M25.9167 80L25.9167 92H13.9167L25.9167 80Z" fill="#973DE0"></path></svg>