<svg xmlns="http://www.w3.org/2000/svg" width="71" height="108" viewBox="0 0 71 108" fill="none"><rect width="70.83" height="68.6407" rx="30" fill="#E7FFFC"></rect><path d="M28.8172 23.3866V28.4665H23.7373V23.3866H28.8172ZM20.3507 20V31.8531H32.2038V20H20.3507ZM37.2837 20H50.83V23.3866H37.2837V20ZM37.2837 31.8531H50.83V35.2396H37.2837V31.8531ZM37.2837 43.7061H50.83V47.0927H37.2837V43.7061ZM33.4011 40.6702L31.0064 38.2755L25.4306 43.8514L22.3947 40.8155L20 43.2101L25.4306 48.6407L33.4011 40.6702Z" fill="#009987"></path><rect x="1.91498" y="83.6406" width="67" height="24" rx="10" fill="#009987"></rect><path d="M17.9656 99.4196C17.4283 99.6276 16.826 99.7316 16.1586 99.7316C15.4393 99.7316 14.8066 99.6146 14.2606 99.3806C13.7146 99.138 13.251 98.8086 12.8696 98.3926C12.497 97.9766 12.2153 97.4826 12.0246 96.9106C11.834 96.3386 11.7386 95.7146 11.7386 95.0386C11.7386 94.354 11.8383 93.7256 12.0376 93.1536C12.237 92.573 12.523 92.0746 12.8956 91.6586C13.277 91.2426 13.7406 90.9176 14.2866 90.6836C14.8413 90.4496 15.474 90.3326 16.1846 90.3326C16.8953 90.3326 17.5236 90.4496 18.0696 90.6836C18.6156 90.909 19.075 91.2296 19.4476 91.6456C19.829 92.0616 20.115 92.56 20.3056 93.1406C20.505 93.7126 20.6046 94.341 20.6046 95.0256C20.6046 95.771 20.4876 96.4513 20.2536 97.0666C20.0196 97.682 19.673 98.202 19.2136 98.6266L20.4746 100.304L19.3046 101.201L17.9656 99.4196ZM16.1716 91.6846C15.6863 91.6846 15.2616 91.7756 14.8976 91.9576C14.5336 92.1396 14.2303 92.3823 13.9876 92.6856C13.745 92.989 13.563 93.3443 13.4416 93.7516C13.329 94.159 13.2726 94.5836 13.2726 95.0256C13.2726 95.4676 13.329 95.8923 13.4416 96.2996C13.563 96.6983 13.7406 97.0536 13.9746 97.3656C14.2173 97.6776 14.5206 97.9246 14.8846 98.1066C15.2486 98.2886 15.6776 98.3796 16.1716 98.3796C16.657 98.3796 17.0816 98.293 17.4456 98.1196C17.8096 97.9376 18.1086 97.695 18.3426 97.3916C18.5853 97.0883 18.763 96.7373 18.8756 96.3386C18.997 95.9313 19.0576 95.498 19.0576 95.0386C19.0576 94.588 18.997 94.1633 18.8756 93.7646C18.763 93.3573 18.5853 93.002 18.3426 92.6986C18.1086 92.3866 17.8096 92.1396 17.4456 91.9576C17.0903 91.7756 16.6656 91.6846 16.1716 91.6846ZM24.9671 98.4446C25.5391 98.4446 25.9465 98.2843 26.1891 97.9636C26.4318 97.643 26.5531 97.188 26.5531 96.5986V92.7896H28.0221V96.6506C28.0221 97.2226 27.9441 97.708 27.7881 98.1066C27.6321 98.4966 27.4198 98.813 27.1511 99.0556C26.8825 99.2896 26.5618 99.463 26.1891 99.5756C25.8251 99.6796 25.4178 99.7316 24.9671 99.7316C24.0138 99.7316 23.2685 99.4846 22.7311 98.9906C22.2025 98.4966 21.9381 97.7166 21.9381 96.6506V92.7896H23.4071V96.5986C23.4071 97.188 23.5328 97.643 23.7841 97.9636C24.0441 98.2756 24.4385 98.436 24.9671 98.4446ZM30.4517 89.9426C30.7204 89.9426 30.9414 90.025 31.1147 90.1896C31.2967 90.3543 31.3877 90.5796 31.3877 90.8656C31.3877 91.143 31.2967 91.364 31.1147 91.5286C30.9414 91.6933 30.7204 91.7756 30.4517 91.7756C30.1657 91.7756 29.9361 91.6933 29.7627 91.5286C29.5894 91.364 29.5027 91.143 29.5027 90.8656C29.5027 90.5796 29.5894 90.3543 29.7627 90.1896C29.9361 90.025 30.1657 89.9426 30.4517 89.9426ZM29.6977 99.6406V92.7896H31.1797V99.6406H29.6977ZM38.2508 93.9206L34.5068 98.3666H38.2508V99.6406H32.6348V98.5096L36.3528 94.0766H32.6348V92.7896H38.2508V93.9206ZM44.9666 93.9206L41.2226 98.3666H44.9666V99.6406H39.3506V98.5096L43.0686 94.0766H39.3506V92.7896H44.9666V93.9206ZM47.5484 96.7156C47.5658 96.967 47.6178 97.201 47.7044 97.4176C47.7911 97.6343 47.9081 97.825 48.0554 97.9896C48.2114 98.1456 48.3978 98.2713 48.6144 98.3666C48.8398 98.462 49.0998 98.5096 49.3944 98.5096C49.7064 98.5096 49.9924 98.4533 50.2524 98.3406C50.5124 98.228 50.7031 98.033 50.8244 97.7556H52.3454C52.2588 98.1023 52.1158 98.4013 51.9164 98.6526C51.7258 98.904 51.4961 99.112 51.2274 99.2766C50.9674 99.4326 50.6771 99.5496 50.3564 99.6276C50.0444 99.697 49.7108 99.7316 49.3554 99.7316C48.8094 99.7316 48.3284 99.6493 47.9124 99.4846C47.5051 99.32 47.1628 99.0816 46.8854 98.7696C46.6081 98.4576 46.4001 98.0893 46.2614 97.6646C46.1314 97.2313 46.0664 96.746 46.0664 96.2086C46.0664 95.6886 46.1401 95.2163 46.2874 94.7916C46.4348 94.3583 46.6471 93.9856 46.9244 93.6736C47.2104 93.3616 47.5528 93.119 47.9514 92.9456C48.3501 92.7636 48.8051 92.6726 49.3164 92.6726C49.8538 92.6726 50.3174 92.7636 50.7074 92.9456C51.0974 93.119 51.4224 93.3573 51.6824 93.6606C51.9511 93.964 52.1504 94.3193 52.2804 94.7266C52.4104 95.134 52.4754 95.576 52.4754 96.0526C52.4754 96.278 52.4624 96.499 52.4364 96.7156H47.5484ZM51.0324 95.5976C51.0151 95.0776 50.8504 94.6746 50.5384 94.3886C50.2264 94.1026 49.8234 93.9596 49.3294 93.9596C49.0521 93.9596 48.8094 94.003 48.6014 94.0896C48.3934 94.1763 48.2158 94.2933 48.0684 94.4406C47.9298 94.588 47.8171 94.7613 47.7304 94.9606C47.6438 95.16 47.5874 95.3723 47.5614 95.5976H51.0324ZM56.3257 93.9076C56.1957 93.9076 56.057 93.9163 55.9097 93.9336C55.771 93.951 55.6367 93.99 55.5067 94.0506C55.3853 94.1026 55.2813 94.1806 55.1947 94.2846C55.1167 94.3886 55.0777 94.523 55.0777 94.6876C55.0777 94.8696 55.1383 95.017 55.2597 95.1296C55.381 95.2423 55.5283 95.329 55.7017 95.3896C55.8837 95.4416 56.07 95.4893 56.2607 95.5326C56.46 95.5673 56.629 95.5976 56.7677 95.6236C57.1403 95.693 57.474 95.7753 57.7687 95.8706C58.072 95.9573 58.3277 96.0743 58.5357 96.2216C58.7437 96.3603 58.904 96.5423 59.0167 96.7676C59.138 96.993 59.1987 97.2876 59.1987 97.6516C59.1987 98.0416 59.1163 98.371 58.9517 98.6396C58.7957 98.9083 58.5877 99.125 58.3277 99.2896C58.0763 99.4456 57.786 99.5583 57.4567 99.6276C57.136 99.697 56.8023 99.7316 56.4557 99.7316C56.109 99.7316 55.7667 99.697 55.4287 99.6276C55.0907 99.5583 54.7787 99.4413 54.4927 99.2766C54.2153 99.112 53.9813 98.8953 53.7907 98.6266C53.6087 98.3493 53.496 98.0156 53.4527 97.6256H54.9477C54.9823 97.799 55.056 97.942 55.1687 98.0546C55.2813 98.1673 55.4113 98.2583 55.5587 98.3276C55.7147 98.397 55.875 98.4446 56.0397 98.4706C56.2043 98.4966 56.356 98.5096 56.4947 98.5096C56.5987 98.5096 56.7243 98.501 56.8717 98.4836C57.0277 98.4663 57.1707 98.4273 57.3007 98.3666C57.4307 98.306 57.539 98.228 57.6257 98.1326C57.721 98.0286 57.7687 97.8986 57.7687 97.7426C57.7687 97.5953 57.734 97.474 57.6647 97.3786C57.5953 97.2746 57.5 97.188 57.3787 97.1186C57.266 97.0493 57.1273 96.9973 56.9627 96.9626C56.798 96.9193 56.6247 96.876 56.4427 96.8326C56.1567 96.7806 55.849 96.7156 55.5197 96.6376C55.199 96.5596 54.8957 96.46 54.6097 96.3386C54.3323 96.2086 54.1027 96.018 53.9207 95.7666C53.7387 95.5153 53.6477 95.1946 53.6477 94.8046C53.6477 94.3886 53.73 94.0463 53.8947 93.7776C54.0593 93.509 54.2717 93.2923 54.5317 93.1276C54.7917 92.9543 55.082 92.8373 55.4027 92.7766C55.7233 92.7073 56.0397 92.6726 56.3517 92.6726C57.1057 92.6726 57.721 92.846 58.1977 93.1926C58.683 93.5393 58.9473 94.042 58.9907 94.7006H57.5997C57.5563 94.4233 57.4133 94.224 57.1707 94.1026C56.9367 93.9813 56.655 93.9163 56.3257 93.9076Z" fill="white"></path><path d="M25.9149 78.6406L25.915 90.6406H13.915L25.9149 78.6406Z" fill="#009987"></path></svg>