<svg xmlns="http://www.w3.org/2000/svg" width="74" height="113" viewBox="0 0 74 113" fill="none"><rect width="74" height="74" rx="30" fill="#FFE9F4"></rect><path d="M46.9166 51.1667H27.0833C24.736 51.1667 22.8333 49.2639 22.8333 46.9167V24.25C22.8333 23.4676 23.4675 22.8333 24.2499 22.8333H44.0833C44.8657 22.8333 45.4999 23.4676 45.4999 24.25V41.25H51.1666V46.9167C51.1666 49.2639 49.2639 51.1667 46.9166 51.1667ZM45.4999 44.0833V46.9167C45.4999 47.6991 46.1342 48.3333 46.9166 48.3333C47.699 48.3333 48.3333 47.6991 48.3333 46.9167V44.0833H45.4999ZM42.6666 48.3333V25.6667H25.6666V46.9167C25.6666 47.6991 26.3009 48.3333 27.0833 48.3333H42.6666ZM28.4999 29.9167H39.8333V32.75H28.4999V29.9167ZM28.4999 35.5833H39.8333V38.4167H28.4999V35.5833ZM28.4999 41.25H35.5833V44.0833H28.4999V41.25Z" fill="#EC469B"></path><rect x="7" y="89" width="60" height="24" rx="10" fill="#EC469B"></rect><path d="M18.109 95.809H24.492V97.161H19.617V99.774H23.933V101.139H19.617V103.661H24.492V105H18.109V95.809ZM30.0847 105L28.4207 102.556L26.8087 105H25.1707L27.5237 101.516L25.2877 98.149H27.0037L28.4987 100.567L29.9547 98.149H31.6447L29.3827 101.555L31.7877 105H30.0847ZM37.1352 104.155C36.9098 104.476 36.6108 104.714 36.2382 104.87C35.8655 105.017 35.4495 105.091 34.9902 105.091C34.6262 105.091 34.2925 105.048 33.9892 104.961C33.6945 104.874 33.4345 104.744 33.2092 104.571C32.9838 104.389 32.8062 104.168 32.6762 103.908C32.5462 103.639 32.4812 103.336 32.4812 102.998C32.4812 102.625 32.5548 102.309 32.7022 102.049C32.8495 101.78 33.0488 101.564 33.3002 101.399C33.5602 101.234 33.8635 101.113 34.2102 101.035C34.5568 100.948 34.9208 100.905 35.3022 100.905H37.0572C37.0572 100.402 36.9445 100.012 36.7192 99.735C36.4938 99.4577 36.0995 99.3147 35.5362 99.306C35.2068 99.306 34.9208 99.3623 34.6782 99.475C34.4442 99.5877 34.2882 99.774 34.2102 100.034H32.6892C32.7412 99.67 32.8582 99.3623 33.0402 99.111C33.2308 98.8597 33.4562 98.6517 33.7162 98.487C33.9848 98.3223 34.2795 98.2053 34.6002 98.136C34.9295 98.0667 35.2588 98.032 35.5882 98.032C36.0128 98.032 36.4072 98.0883 36.7712 98.201C37.1352 98.3137 37.4515 98.5043 37.7202 98.773C38.0235 99.085 38.2272 99.4577 38.3312 99.891C38.4352 100.324 38.4872 100.797 38.4872 101.308V105H37.2002L37.1352 104.155ZM37.0572 101.958H35.6272C35.3758 101.958 35.1245 101.98 34.8732 102.023C34.6218 102.058 34.4052 102.149 34.2232 102.296C34.0498 102.435 33.9632 102.638 33.9632 102.907C33.9632 103.236 34.0802 103.488 34.3142 103.661C34.5568 103.826 34.8515 103.908 35.1982 103.908C35.4668 103.908 35.7138 103.873 35.9392 103.804C36.1732 103.735 36.3725 103.622 36.5372 103.466C36.7018 103.301 36.8275 103.098 36.9142 102.855C37.0095 102.604 37.0572 102.305 37.0572 101.958ZM41.4955 98.149L41.5605 98.994C42.0371 98.3527 42.6611 98.032 43.4325 98.032C43.9178 98.032 44.3078 98.1317 44.6025 98.331C44.8971 98.5303 45.1268 98.799 45.2915 99.137C45.5601 98.773 45.8635 98.5 46.2015 98.318C46.5481 98.1273 46.9511 98.032 47.4105 98.032C47.8005 98.032 48.1341 98.097 48.4115 98.227C48.6975 98.357 48.9228 98.539 49.0875 98.773C49.2608 99.007 49.3865 99.28 49.4645 99.592C49.5425 99.8953 49.5815 100.22 49.5815 100.567V105H48.0995V101.113C48.0995 100.905 48.0865 100.697 48.0605 100.489C48.0345 100.281 47.9781 100.095 47.8915 99.93C47.8135 99.7567 47.6965 99.618 47.5405 99.514C47.3845 99.41 47.1765 99.358 46.9165 99.358C46.6391 99.358 46.4095 99.423 46.2275 99.553C46.0541 99.683 45.9155 99.8433 45.8115 100.034C45.7161 100.225 45.6511 100.441 45.6165 100.684C45.5818 100.918 45.5645 101.152 45.5645 101.386V105H44.0955V101.087C44.0955 100.888 44.0825 100.688 44.0565 100.489C44.0391 100.281 43.9915 100.095 43.9135 99.93C43.8355 99.7653 43.7185 99.631 43.5625 99.527C43.4151 99.4143 43.2071 99.358 42.9385 99.358C42.6785 99.358 42.4488 99.4273 42.2495 99.566C42.0588 99.696 41.9115 99.865 41.8075 100.073C41.7035 100.272 41.6341 100.493 41.5995 100.736C41.5648 100.97 41.5475 101.187 41.5475 101.386V105H40.0785V98.149H41.4955ZM53.6324 99.267C53.5024 99.267 53.3637 99.2757 53.2164 99.293C53.0777 99.3103 52.9434 99.3493 52.8134 99.41C52.692 99.462 52.588 99.54 52.5014 99.644C52.4234 99.748 52.3844 99.8823 52.3844 100.047C52.3844 100.229 52.445 100.376 52.5664 100.489C52.6877 100.602 52.835 100.688 53.0084 100.749C53.1904 100.801 53.3767 100.849 53.5674 100.892C53.7667 100.927 53.9357 100.957 54.0744 100.983C54.447 101.052 54.7807 101.135 55.0754 101.23C55.3787 101.317 55.6344 101.434 55.8424 101.581C56.0504 101.72 56.2107 101.902 56.3234 102.127C56.4447 102.352 56.5054 102.647 56.5054 103.011C56.5054 103.401 56.423 103.73 56.2584 103.999C56.1024 104.268 55.8944 104.484 55.6344 104.649C55.383 104.805 55.0927 104.918 54.7634 104.987C54.4427 105.056 54.109 105.091 53.7624 105.091C53.4157 105.091 53.0734 105.056 52.7354 104.987C52.3974 104.918 52.0854 104.801 51.7994 104.636C51.522 104.471 51.288 104.255 51.0974 103.986C50.9154 103.709 50.8027 103.375 50.7594 102.985H52.2544C52.289 103.158 52.3627 103.301 52.4754 103.414C52.588 103.527 52.718 103.618 52.8654 103.687C53.0214 103.756 53.1817 103.804 53.3464 103.83C53.511 103.856 53.6627 103.869 53.8014 103.869C53.9054 103.869 54.031 103.86 54.1784 103.843C54.3344 103.826 54.4774 103.787 54.6074 103.726C54.7374 103.665 54.8457 103.587 54.9324 103.492C55.0277 103.388 55.0754 103.258 55.0754 103.102C55.0754 102.955 55.0407 102.833 54.9714 102.738C54.902 102.634 54.8067 102.547 54.6854 102.478C54.5727 102.409 54.434 102.357 54.2694 102.322C54.1047 102.279 53.9314 102.235 53.7494 102.192C53.4634 102.14 53.1557 102.075 52.8264 101.997C52.5057 101.919 52.2024 101.819 51.9164 101.698C51.639 101.568 51.4094 101.377 51.2274 101.126C51.0454 100.875 50.9544 100.554 50.9544 100.164C50.9544 99.748 51.0367 99.4057 51.2014 99.137C51.366 98.8683 51.5784 98.6517 51.8384 98.487C52.0984 98.3137 52.3887 98.1967 52.7094 98.136C53.03 98.0667 53.3464 98.032 53.6584 98.032C54.4124 98.032 55.0277 98.2053 55.5044 98.552C55.9897 98.8987 56.254 99.4013 56.2974 100.06H54.9064C54.863 99.7827 54.72 99.5833 54.4774 99.462C54.2434 99.3407 53.9617 99.2757 53.6324 99.267Z" fill="white"></path><path d="M31 84L31 96H19L31 84Z" fill="#EC469B"></path></svg>