<svg xmlns="http://www.w3.org/2000/svg" width="74" height="113" viewBox="0 0 74 113" fill="none"><rect width="74" height="74" rx="30" fill="#FFECE4"></rect><rect x="21.5" y="21.5" width="31" height="31" rx="3.5" stroke="#F97A53" stroke-width="3"></rect><rect x="27.7197" y="31.0283" width="18.748" height="3.30847" rx="1.65423" fill="#F97A53"></rect><rect x="27.7197" y="38.748" width="18.748" height="3.30847" rx="1.65423" fill="#F97A53"></rect><rect x="7" y="89" width="60" height="24" rx="10" fill="#F97A53"></rect><path d="M19.5611 105V95.809H25.8661V97.161H21.0691V100.073H25.1771V101.412H21.0691V105H19.5611ZM29.8343 98.032C30.3803 98.032 30.8613 98.1187 31.2773 98.292C31.6933 98.4653 32.0443 98.708 32.3303 99.02C32.6249 99.3233 32.8459 99.6917 32.9933 100.125C33.1406 100.558 33.2143 101.039 33.2143 101.568C33.2143 102.105 33.1406 102.591 32.9933 103.024C32.8546 103.449 32.6423 103.817 32.3563 104.129C32.0703 104.441 31.7149 104.679 31.2903 104.844C30.8743 105.009 30.3889 105.091 29.8343 105.091C29.2883 105.091 28.8073 105.009 28.3913 104.844C27.9753 104.671 27.6243 104.432 27.3383 104.129C27.0609 103.817 26.8486 103.444 26.7013 103.011C26.5626 102.578 26.4933 102.097 26.4933 101.568C26.4933 101.039 26.5626 100.558 26.7013 100.125C26.8486 99.6917 27.0653 99.3233 27.3513 99.02C27.6373 98.708 27.9883 98.4653 28.4043 98.292C28.8203 98.1187 29.2969 98.032 29.8343 98.032ZM29.8343 103.804C30.1723 103.804 30.4583 103.748 30.6923 103.635C30.9349 103.514 31.1299 103.353 31.2773 103.154C31.4333 102.955 31.5459 102.721 31.6153 102.452C31.6933 102.183 31.7323 101.893 31.7323 101.581C31.7323 101.269 31.6933 100.979 31.6153 100.71C31.5459 100.433 31.4333 100.194 31.2773 99.995C31.1299 99.7957 30.9349 99.6397 30.6923 99.527C30.4583 99.4143 30.1723 99.358 29.8343 99.358C29.5049 99.358 29.2233 99.4143 28.9893 99.527C28.7553 99.6397 28.5603 99.7957 28.4043 99.995C28.2483 100.194 28.1313 100.433 28.0533 100.71C27.9839 100.979 27.9493 101.269 27.9493 101.581C27.9493 101.893 27.9839 102.183 28.0533 102.452C28.1313 102.721 28.2439 102.955 28.3913 103.154C28.5473 103.353 28.7423 103.514 28.9763 103.635C29.2189 103.748 29.5049 103.804 29.8343 103.804ZM34.5609 105V98.149H35.9519L36.0299 99.124C36.5585 98.396 37.2779 98.032 38.1879 98.032C38.2745 98.032 38.3569 98.0363 38.4349 98.045C38.5215 98.045 38.5995 98.0493 38.6689 98.058V99.436C38.5649 99.436 38.4609 99.4403 38.3569 99.449C38.2615 99.449 38.1662 99.449 38.0709 99.449C37.6895 99.4577 37.3689 99.527 37.1089 99.657C36.8575 99.7783 36.6495 99.943 36.4849 100.151C36.3289 100.359 36.2162 100.606 36.1469 100.892C36.0775 101.169 36.0429 101.468 36.0429 101.789V105H34.5609ZM41.0433 98.149L41.1083 98.994C41.585 98.3527 42.209 98.032 42.9803 98.032C43.4656 98.032 43.8556 98.1317 44.1503 98.331C44.445 98.5303 44.6746 98.799 44.8393 99.137C45.108 98.773 45.4113 98.5 45.7493 98.318C46.096 98.1273 46.499 98.032 46.9583 98.032C47.3483 98.032 47.682 98.097 47.9593 98.227C48.2453 98.357 48.4706 98.539 48.6353 98.773C48.8086 99.007 48.9343 99.28 49.0123 99.592C49.0903 99.8953 49.1293 100.22 49.1293 100.567V105H47.6473V101.113C47.6473 100.905 47.6343 100.697 47.6083 100.489C47.5823 100.281 47.526 100.095 47.4393 99.93C47.3613 99.7567 47.2443 99.618 47.0883 99.514C46.9323 99.41 46.7243 99.358 46.4643 99.358C46.187 99.358 45.9573 99.423 45.7753 99.553C45.602 99.683 45.4633 99.8433 45.3593 100.034C45.264 100.225 45.199 100.441 45.1643 100.684C45.1296 100.918 45.1123 101.152 45.1123 101.386V105H43.6433V101.087C43.6433 100.888 43.6303 100.688 43.6043 100.489C43.587 100.281 43.5393 100.095 43.4613 99.93C43.3833 99.7653 43.2663 99.631 43.1103 99.527C42.963 99.4143 42.755 99.358 42.4863 99.358C42.2263 99.358 41.9966 99.4273 41.7973 99.566C41.6066 99.696 41.4593 99.865 41.3553 100.073C41.2513 100.272 41.182 100.493 41.1473 100.736C41.1126 100.97 41.0953 101.187 41.0953 101.386V105H39.6263V98.149H41.0433ZM53.1802 99.267C53.0502 99.267 52.9116 99.2757 52.7642 99.293C52.6256 99.3103 52.4912 99.3493 52.3612 99.41C52.2399 99.462 52.1359 99.54 52.0492 99.644C51.9712 99.748 51.9322 99.8823 51.9322 100.047C51.9322 100.229 51.9929 100.376 52.1142 100.489C52.2356 100.602 52.3829 100.688 52.5562 100.749C52.7382 100.801 52.9246 100.849 53.1152 100.892C53.3146 100.927 53.4836 100.957 53.6222 100.983C53.9949 101.052 54.3286 101.135 54.6232 101.23C54.9266 101.317 55.1822 101.434 55.3902 101.581C55.5982 101.72 55.7586 101.902 55.8712 102.127C55.9926 102.352 56.0532 102.647 56.0532 103.011C56.0532 103.401 55.9709 103.73 55.8062 103.999C55.6502 104.268 55.4422 104.484 55.1822 104.649C54.9309 104.805 54.6406 104.918 54.3112 104.987C53.9906 105.056 53.6569 105.091 53.3102 105.091C52.9636 105.091 52.6212 105.056 52.2832 104.987C51.9452 104.918 51.6332 104.801 51.3472 104.636C51.0699 104.471 50.8359 104.255 50.6452 103.986C50.4632 103.709 50.3506 103.375 50.3072 102.985H51.8022C51.8369 103.158 51.9106 103.301 52.0232 103.414C52.1359 103.527 52.2659 103.618 52.4132 103.687C52.5692 103.756 52.7296 103.804 52.8942 103.83C53.0589 103.856 53.2106 103.869 53.3492 103.869C53.4532 103.869 53.5789 103.86 53.7262 103.843C53.8822 103.826 54.0252 103.787 54.1552 103.726C54.2852 103.665 54.3936 103.587 54.4802 103.492C54.5756 103.388 54.6232 103.258 54.6232 103.102C54.6232 102.955 54.5886 102.833 54.5192 102.738C54.4499 102.634 54.3546 102.547 54.2332 102.478C54.1206 102.409 53.9819 102.357 53.8172 102.322C53.6526 102.279 53.4792 102.235 53.2972 102.192C53.0112 102.14 52.7036 102.075 52.3742 101.997C52.0536 101.919 51.7502 101.819 51.4642 101.698C51.1869 101.568 50.9572 101.377 50.7752 101.126C50.5932 100.875 50.5022 100.554 50.5022 100.164C50.5022 99.748 50.5846 99.4057 50.7492 99.137C50.9139 98.8683 51.1262 98.6517 51.3862 98.487C51.6462 98.3137 51.9366 98.1967 52.2572 98.136C52.5779 98.0667 52.8942 98.032 53.2062 98.032C53.9602 98.032 54.5756 98.2053 55.0522 98.552C55.5376 98.8987 55.8019 99.4013 55.8452 100.06H54.4542C54.4109 99.7827 54.2679 99.5833 54.0252 99.462C53.7912 99.3407 53.5096 99.2757 53.1802 99.267Z" fill="white"></path><path d="M31 84L31 96H19L31 84Z" fill="#F97A53"></path></svg>